<?xml version="1.0" encoding="utf-8"?>
<!-- Generator: Adobe Illustrator 18.1.1, SVG Export Plug-In . SVG Version: 6.00 Build 0)  -->
<svg version="1.1" id="Layer_1" xmlns="http://www.w3.org/2000/svg" xmlns:xlink="http://www.w3.org/1999/xlink" x="0px" y="0px"
	 viewBox="0 0 115 30" enable-background="new 0 0 115 30" xml:space="preserve">
<g>
	<g>
		<path fill="#EE5B4C" d="M15.3,0C6.9-0.1,0.1,6.6,0,14.9c0,3.5,1.2,6.7,3.2,9.3c0.8-0.8,1.3-1.3,1.4-1.4C5,22.4,6,22.4,6,22.4
			s1-1,2.1-2.1c1.1-1-0.7-2.9-0.7-2.9l-2.5-2.5C14.8,5.3,22,8.3,22,8.3s2.9,7.2-7,16.8l-2.5-2.5c0,0-1.8-1.8-2.9-0.8
			c-1.1,1-2.1,2.1-2.1,2.1s0,1-0.4,1.4c-0.1,0.1-0.6,0.6-1.4,1.4c2.6,2.1,5.9,3.3,9.4,3.3c8.4,0.1,15.3-6.6,15.3-14.9
			C30.5,6.8,23.7,0.1,15.3,0L15.3,0z"/>
	</g>
	<path fill="#EE5B4C" d="M39.9,20.3c0.8,0,1.3-0.1,1.7-0.2c0.3-0.2,0.5-0.4,0.5-0.9c0-0.3-0.2-0.6-0.6-0.9c-0.4-0.3-1.1-0.5-1.9-0.9
		c-0.7-0.2-1.3-0.5-1.8-0.8c-0.5-0.3-1-0.6-1.4-0.9c-0.4-0.4-0.7-0.8-0.9-1.3c-0.2-0.5-0.3-1.1-0.3-1.8c0-1.4,0.5-2.5,1.6-3.3
		C37.7,8.4,39.1,8,41,8c0.9,0,1.8,0.1,2.6,0.2c0.8,0.2,1.5,0.3,2,0.5l-0.7,3.3c-0.5-0.2-1-0.3-1.6-0.5c-0.6-0.1-1.2-0.2-2-0.2
		c-1.3,0-2,0.4-2,1.1c0,0.2,0,0.3,0.1,0.5c0.1,0.1,0.2,0.3,0.3,0.4c0.2,0.1,0.4,0.3,0.7,0.4c0.3,0.1,0.7,0.3,1.1,0.5
		c0.9,0.3,1.7,0.7,2.3,1c0.6,0.3,1.1,0.7,1.5,1.1c0.4,0.4,0.6,0.8,0.7,1.3c0.1,0.5,0.2,1,0.2,1.6c0,1.5-0.6,2.6-1.7,3.3
		c-1.1,0.8-2.7,1.1-4.8,1.1c-1.3,0-2.5-0.1-3.3-0.3c-0.9-0.2-1.5-0.4-1.9-0.6l0.7-3.4c0.7,0.3,1.5,0.5,2.2,0.7
		C38.4,20.2,39.1,20.3,39.9,20.3"/>
	<path fill="#EE5B4C" d="M62.4,8.4c-0.9,2.9-1.8,5.6-2.7,8.1c-0.9,2.5-2,4.9-3.1,7.3c-0.4,0.8-0.8,1.6-1.2,2.2
		c-0.4,0.6-0.8,1.1-1.3,1.5c-0.5,0.4-1,0.7-1.6,0.9c-0.6,0.2-1.3,0.3-2.1,0.3c-0.7,0-1.3-0.1-1.9-0.2c-0.6-0.1-1-0.3-1.4-0.4
		l0.7-3.4c0.4,0.2,0.8,0.3,1.2,0.3c0.3,0.1,0.7,0.1,1.1,0.1c0.8,0,1.4-0.2,1.8-0.6c0.4-0.4,0.8-1,1.1-1.7c-1-1.9-2-4-2.9-6.4
		c-1-2.4-1.9-5-2.8-7.9h4.5c0.2,0.7,0.4,1.5,0.7,2.4c0.3,0.9,0.5,1.7,0.8,2.6c0.3,0.9,0.6,1.7,0.9,2.6c0.3,0.8,0.6,1.6,0.9,2.3
		c0.2-0.7,0.5-1.4,0.8-2.3c0.3-0.8,0.5-1.7,0.8-2.6c0.3-0.9,0.5-1.7,0.8-2.6c0.2-0.9,0.5-1.7,0.6-2.4H62.4L62.4,8.4z"/>
	<path fill="#EE5B4C" d="M68.4,20.3c0.8,0,1.3-0.1,1.7-0.2c0.3-0.2,0.5-0.4,0.5-0.9c0-0.3-0.2-0.6-0.6-0.9c-0.4-0.3-1.1-0.5-1.9-0.9
		c-0.7-0.2-1.3-0.5-1.8-0.8c-0.5-0.3-1-0.6-1.4-0.9c-0.4-0.4-0.7-0.8-0.9-1.3c-0.2-0.5-0.3-1.1-0.3-1.8c0-1.4,0.5-2.5,1.6-3.3
		C66.2,8.4,67.7,8,69.5,8c0.9,0,1.8,0.1,2.6,0.2c0.8,0.2,1.5,0.3,2,0.5l-0.7,3.3c-0.5-0.2-1-0.3-1.6-0.5c-0.6-0.1-1.2-0.2-2-0.2
		c-1.3,0-2,0.4-2,1.1c0,0.2,0,0.3,0.1,0.5c0.1,0.1,0.2,0.3,0.3,0.4c0.2,0.1,0.4,0.3,0.7,0.4c0.3,0.1,0.7,0.3,1.1,0.5
		c0.9,0.3,1.7,0.7,2.3,1c0.6,0.3,1.1,0.7,1.5,1.1c0.4,0.4,0.6,0.8,0.7,1.3c0.1,0.5,0.2,1,0.2,1.6c0,1.5-0.6,2.6-1.7,3.3
		c-1.1,0.8-2.7,1.1-4.8,1.1c-1.3,0-2.5-0.1-3.3-0.3c-0.9-0.2-1.5-0.4-1.9-0.6l0.7-3.4c0.7,0.3,1.5,0.5,2.2,0.7
		C66.9,20.2,67.7,20.3,68.4,20.3"/>
	<path fill="#EE5B4C" d="M81.1,15.8c0,1.3,0.3,2.4,0.9,3.1c0.6,0.8,1.5,1.2,2.6,1.2c0.4,0,0.7,0,1.1,0c0.3,0,0.6-0.1,0.8-0.1v-7.7
		c-0.3-0.2-0.6-0.3-1-0.4c-0.4-0.1-0.9-0.2-1.3-0.2C82.1,11.7,81.1,13,81.1,15.8 M90.8,22.8c-0.4,0.1-0.8,0.2-1.3,0.3
		c-0.5,0.1-1,0.2-1.6,0.3c-0.5,0.1-1.1,0.1-1.7,0.2c-0.6,0-1.1,0.1-1.6,0.1c-1.2,0-2.4-0.2-3.3-0.5c-1-0.4-1.8-0.9-2.5-1.5
		c-0.7-0.7-1.2-1.5-1.5-2.4c-0.4-1-0.5-2-0.5-3.2c0-1.2,0.2-2.3,0.5-3.3c0.3-1,0.7-1.8,1.3-2.5c0.6-0.7,1.3-1.2,2.1-1.6
		c0.8-0.4,1.8-0.5,2.9-0.5c0.6,0,1.1,0.1,1.6,0.2c0.5,0.1,0.9,0.3,1.4,0.5V2l4.3-0.7V22.8L90.8,22.8z"/>
	<path fill="#EE5B4C" d="M98.5,23.3h-4.3V8.4h4.3V23.3L98.5,23.3z M98.9,4.1c0,0.8-0.3,1.4-0.8,1.8c-0.5,0.4-1.1,0.7-1.8,0.7
		c-0.7,0-1.3-0.2-1.8-0.7c-0.5-0.4-0.8-1.1-0.8-1.8c0-0.8,0.3-1.4,0.8-1.8c0.5-0.4,1.1-0.7,1.8-0.7c0.7,0,1.3,0.2,1.8,0.7
		C98.6,2.7,98.9,3.3,98.9,4.1"/>
	<path fill="#EE5B4C" d="M105.6,15.4c0,2.4,1,3.5,2.9,3.5c0.4,0,0.9-0.1,1.2-0.2c0.4-0.1,0.7-0.2,1-0.4v-6.7c-0.2,0-0.5-0.1-0.7-0.1
		c-0.3,0-0.6,0-1,0c-1.1,0-2,0.4-2.5,1.1C105.9,13.3,105.6,14.3,105.6,15.4 M115,21.5c0,2.4-0.6,4.2-1.9,5.4
		c-1.3,1.2-3.2,1.8-5.8,1.8c-0.9,0-1.8-0.1-2.8-0.2c-0.9-0.2-1.8-0.4-2.6-0.6l0.7-3.5c0.7,0.3,1.4,0.5,2.1,0.6
		c0.7,0.2,1.6,0.2,2.5,0.2c1.2,0,2.1-0.3,2.6-0.8c0.5-0.5,0.8-1.2,0.8-2v-0.5c-0.5,0.2-0.9,0.4-1.4,0.5c-0.5,0.1-1,0.2-1.6,0.2
		c-2.1,0-3.7-0.6-4.8-1.8c-1.1-1.2-1.7-2.9-1.7-5.1c0-1.1,0.2-2.1,0.5-3c0.3-0.9,0.8-1.7,1.5-2.3c0.7-0.6,1.5-1.1,2.4-1.5
		c1-0.3,2-0.5,3.2-0.5c0.5,0,1,0,1.6,0.1c0.5,0,1.1,0.1,1.6,0.2c0.5,0.1,1,0.2,1.5,0.3c0.5,0.1,0.9,0.2,1.3,0.3V21.5L115,21.5z"/>
</g>
</svg>
