<?xml version="1.0" encoding="utf-8"?>
<!-- Generator: Adobe Illustrator 18.1.1, SVG Export Plug-In . SVG Version: 6.00 Build 0)  -->
<svg version="1.1" id="Layer_1" xmlns="http://www.w3.org/2000/svg" xmlns:xlink="http://www.w3.org/1999/xlink" x="0px" y="0px"
	 viewBox="0 0 79.7 108.9" enable-background="new 0 0 79.7 108.9" xml:space="preserve">
<g>
	<defs>
		<polygon id="SVGID_7_" points="91.6,4.4 -7.9,4.4 -7.9,94.6 8.6,94.6 8.6,108.9 65.6,108.9 65.6,94.6 91.6,94.6 		"/>
	</defs>
	<clipPath id="SVGID_1_">
		<use xlink:href="#SVGID_7_"  overflow="visible"/>
	</clipPath>
	<g clip-path="url(#SVGID_1_)">
		<g>
			<g>
				<g>
					<defs>
						<rect id="SVGID_9_" x="0" y="6.7" width="77.1" height="124.9"/>
					</defs>
					<clipPath id="SVGID_2_">
						<use xlink:href="#SVGID_9_"  overflow="visible"/>
					</clipPath>
					<g clip-path="url(#SVGID_2_)">
						<defs>
							<rect id="SVGID_11_" x="0" y="6.7" width="77.1" height="124.9"/>
						</defs>
						<clipPath id="SVGID_3_">
							<use xlink:href="#SVGID_11_"  overflow="visible"/>
						</clipPath>
						<path clip-path="url(#SVGID_3_)" fill="#231F20" d="M67.9,127.8c0,2.1-14.1,3.8-31.4,3.8c-17.4,0-31.4-1.7-31.4-3.8
							c0-2.1,14.1-3.8,31.4-3.8C53.9,124,67.9,125.7,67.9,127.8"/>
						<path clip-path="url(#SVGID_3_)" fill="#F1664A" d="M33.9,70.7c0,0,4.1-2.8,8.8-0.7c0,0,16.8,7.5,9,37.6c0,0-3.5,9.8-0.2,13.9
							c0,0,3.8,4.1,4.9,9.3l-6.2,0.5c0,0-15.7-13.7-27.6,0l-4-0.3c0,0-0.6-9.4,9.9-16.4c0,0,6.1-5.2,6.4-11.7c0,0,0.8-7.5-2.9-7
							l3.2-3.1c0,0,9.6-1.4,8.2-8.3l0-4.6C43.4,79.9,43.6,73.6,33.9,70.7"/>
						<path clip-path="url(#SVGID_3_)" fill="#939598" d="M28.2,40.3c0,0-16.5,9.6-28,35.5l1.3,0.7c0,0,9-22.4,27.6-35.3L28.2,40.3z
							"/>
						<path clip-path="url(#SVGID_3_)" fill="#F1664A" d="M17.6,52h-0.7c0,0-3.2,3.7-3.7,4.6c0,0-2,20.7,8.5,24.4l2.5-4l1-3.2
							c0,0-10.7,0.5-8.6-18.4C16.6,55.4,16.8,53.7,17.6,52"/>
						<path clip-path="url(#SVGID_3_)" fill="#F1664A" d="M8.8,57c0,0,1.6-0.8,1.2,1.4c0,0-5.6,15.9,11.5,25.7c0,0-0.7,4.3,5.5,7.3
							l1.8,3.5c0,0-22-2.9-22.8-31.5C6,63.5,6.2,59,8.8,57"/>
						<path clip-path="url(#SVGID_3_)" fill="#FBAF60" d="M21.8,80.2c0,0-3.9,7.7,4.7,11.3c0,0,2,1.1,2.3,7.8c0,0,1.7,1.2,3.1,0.4
							c0,0,1.6-6.4,4.3-6.9c0,0,8.9-1.2,7.6-8.9c0,0,3.4-0.1,3.1-2.5c0,0,0-3.5-3.7-1.6c0,0-4-4.5-10.3,3.1c0,0-2.1-8.5-9-6.7
							c0,0-1.9-2.8-3.9-0.8C19.9,75.6,17.2,77.9,21.8,80.2"/>
						<path clip-path="url(#SVGID_3_)" fill="#231F20" d="M40.6,88.1c0.3,0.7-1.4,2-3.7,2.9c-2.3,0.9-4.4,1.1-4.7,0.4
							c-0.3-0.7,1.4-2,3.7-2.9C38.3,87.6,40.4,87.4,40.6,88.1"/>
						<path clip-path="url(#SVGID_3_)" fill="#231F20" d="M23.5,85.3c-0.5,0.6,0.7,2.3,2.6,4c1.9,1.6,3.8,2.5,4.3,2
							c0.5-0.6-0.7-2.3-2.6-4C25.9,85.6,24,84.7,23.5,85.3"/>
						<path clip-path="url(#SVGID_3_)" fill="#FFFFFF" d="M35.1,90.4c1.1-0.3,2.1-0.2,2.2,0.2c0.1,0.4-0.7,0.9-1.9,1.2
							c-1.1,0.3-2.1,0.2-2.2-0.2C33.1,91.3,33.9,90.7,35.1,90.4"/>
						<path clip-path="url(#SVGID_3_)" fill="#18181A" d="M35.2,91c0.9-0.2,1.7-0.2,1.7,0.1c0.1,0.3-0.6,0.7-1.5,0.9
							c-0.9,0.2-1.7,0.2-1.7-0.1C33.7,91.7,34.4,91.2,35.2,91"/>
						<path clip-path="url(#SVGID_3_)" fill="#FFFFFF" d="M28,89.3c1,0.7,1.6,1.5,1.3,1.8c-0.2,0.3-1.2,0.1-2.2-0.6
							c-1-0.7-1.6-1.5-1.3-1.8C26.1,88.4,27,88.7,28,89.3"/>
						<path clip-path="url(#SVGID_3_)" fill="#18181A" d="M27.6,89.8c0.8,0.5,1.2,1.1,1.1,1.4c-0.2,0.2-0.9,0-1.7-0.5
							c-0.8-0.5-1.2-1.1-1.1-1.4C26.2,89.1,26.9,89.3,27.6,89.8"/>
						<path clip-path="url(#SVGID_3_)" fill="#939598" d="M28.7,98.6c0,0,1.1,1.5,3.3,0.7l-0.2,1.5c0,0-1.8,0.9-3-0.5V98.6z"/>
						<path clip-path="url(#SVGID_3_)" fill="#231F20" d="M46.3,82.6c0.1,0.3-0.3,0.8-1.1,1.2c-0.7,0.4-1.5,0.4-1.6,0.1
							c-0.1-0.3,0.3-0.8,1.1-1.2C45.4,82.3,46.1,82.3,46.3,82.6"/>
						<path clip-path="url(#SVGID_3_)" fill="#231F20" d="M21.9,80.1c-0.3,0.2-0.9-0.1-1.4-0.7c-0.5-0.6-0.8-1.3-0.5-1.5
							c0.3-0.2,0.9,0.1,1.4,0.7C21.9,79.2,22.1,79.9,21.9,80.1"/>
						<path clip-path="url(#SVGID_3_)" fill="#F1664A" d="M23.3,75.8c0,0,1.9-6.7,11.2-5.2c0,0,9.5,1.8,8.9,9.3L43.1,80
							c0,0-3.9-4.5-10.4,3.2c0,0-1.7-8.6-9-6.8L23.3,75.8z"/>
						<path clip-path="url(#SVGID_3_)" fill="#F1664A" d="M13.4,54c0,0,2.2-2.4,4.7-2.1c0,0,5.4-2.3,3.4-4.4c0,0-2.7-2.7-6.9,1.6
							C14.6,49.2,13.3,52.5,13.4,54"/>
						<path clip-path="url(#SVGID_3_)" fill="#F1664A" d="M52.2,123.1c0,0,21.9,0.9,21.3-23.7c0,0-0.2-1,0.6-1.8
							c0,0,0.8,0.3,0.9,1.7c0,0,4.4,22.2-20.4,28L52.2,123.1z"/>
						<path clip-path="url(#SVGID_3_)" fill="#231F20" d="M74.1,97.7c0,0-0.8,0.5-0.6,1.9c0,0,0.3,5.8-1.4,10.3l2.2,0.7
							c0,0,1.8-4.8,0.7-11.8C74.9,98.8,74.6,97.8,74.1,97.7"/>
						<path clip-path="url(#SVGID_3_)" fill="#FBAF60" d="M33.5,95c0,0,1.7,0.3,3.9,0.1c0,0,6.1-1.1,10.4,7.1c0,0,6,13.6-7.6,23.6
							c0,0-3.2-0.9-5.8-0.6c0,0-7.4-4.9-1.8-16c0,0,4.3-9,0.4-13.1L33.5,95z"/>
						<path clip-path="url(#SVGID_3_)" fill="#231F20" d="M35.9,69.6c0,0,7.2,0.2,11.1,9.5C47,79.1,45.4,68.5,35.9,69.6"/>
						<path clip-path="url(#SVGID_3_)" fill="#231F20" d="M46.8,73.2c0,0,3.6,3.3,1.1,13.1C47.9,86.3,52.3,77.8,46.8,73.2"/>
						<path clip-path="url(#SVGID_3_)" fill="#231F20" d="M52.2,82.2c0,0,0.8,6.5-6.6,11.3c0,0,6.2-2.8,7.3-8.6L52.2,82.2z"/>
						<path clip-path="url(#SVGID_3_)" fill="#231F20" d="M53.7,90.6c0,0-0.3,4.9-3.7,7.1c0,0,2.8-0.9,3.8-4L53.7,90.6z"/>
						<path clip-path="url(#SVGID_3_)" fill="#231F20" d="M53.1,100.7c0,0-0.5,1-1.4,1.7l1.2-0.5L53.1,100.7z"/>
						<path clip-path="url(#SVGID_3_)" fill="#231F20" d="M34.5,70.5c0,0,6,1.1,8.1,5.3c0,0-0.5-4.1-7.6-5.7L34.5,70.5z"/>
						<path clip-path="url(#SVGID_3_)" fill="#939598" d="M32.3,39.8L29,42l-1.4-2.1l3.3-2.2c3.2-2.2-0.7-5.7-0.7-5.7l0.4-1.9
							l5.4-3.6c6.5-4.3,12,1.4,12,1.4s3.2,7.3-3.3,11.6l-5.5,3.6l-1.8-0.4C37.4,42.7,35.6,37.6,32.3,39.8"/>
						<path clip-path="url(#SVGID_3_)" fill="#F1664A" d="M62.5,25.9c-1-0.4-1.8-0.8-2.2-1.4c-0.4-0.6-0.5-1.1-0.3-1.8
							c0.2-0.6,0.7-1,1.4-1.2c0.7-0.1,1.5,0,2.6,0.3c1,0.4,1.8,0.8,2.2,1.4c0.4,0.5,0.5,1.1,0.3,1.8c-0.2,0.6-0.7,1-1.4,1.2
							C64.3,26.4,63.5,26.3,62.5,25.9 M63.6,22.7c-0.3-0.1-0.7-0.2-1-0.3c-0.3-0.1-0.6-0.1-0.9-0.1c-0.3,0-0.5,0.1-0.7,0.2
							c-0.2,0.1-0.3,0.3-0.4,0.5c-0.1,0.2-0.1,0.4,0,0.6c0.1,0.2,0.2,0.4,0.4,0.6c0.2,0.2,0.4,0.3,0.7,0.5c0.3,0.1,0.6,0.3,0.9,0.4
							c0.3,0.1,0.7,0.2,1,0.3c0.3,0.1,0.6,0.1,0.9,0.1c0.3,0,0.5-0.1,0.7-0.2c0.2-0.1,0.3-0.3,0.4-0.5c0.1-0.2,0.1-0.4,0-0.6
							c-0.1-0.2-0.2-0.4-0.4-0.6c-0.2-0.2-0.4-0.3-0.7-0.5C64.3,23,64,22.8,63.6,22.7"/>
						<path clip-path="url(#SVGID_3_)" fill="#F1664A" d="M48.7,32.5c-0.3-0.2-0.7-0.4-1-0.5c-0.4-0.2-0.8-0.3-1.2-0.3l-0.3-0.5
							l4.7-3.3l-0.7-1l0.6-0.4l2,2.9l-0.6,0.4l-0.8-1.2l-3.7,2.6c0.1,0,0.2,0.1,0.3,0.1c0.1,0,0.2,0.1,0.4,0.2
							c0.1,0.1,0.3,0.1,0.4,0.2c0.1,0.1,0.3,0.2,0.4,0.2L48.7,32.5z"/>
						<path clip-path="url(#SVGID_3_)" fill="#F1664A" d="M48.5,21.2c1-0.5,1.8-0.6,2.5-0.6c0.7,0.1,1.2,0.4,1.5,1.1
							c0.3,0.6,0.2,1.2-0.1,1.8c-0.4,0.6-1.1,1.1-2,1.6c-1,0.5-1.8,0.6-2.5,0.6c-0.7-0.1-1.2-0.4-1.5-1.1c-0.3-0.6-0.2-1.2,0.1-1.8
							C46.9,22.1,47.6,21.6,48.5,21.2 M50,24.2c0.3-0.2,0.6-0.3,0.9-0.5c0.3-0.2,0.5-0.4,0.7-0.5c0.2-0.2,0.3-0.4,0.3-0.6
							c0.1-0.2,0-0.4-0.1-0.6c-0.1-0.2-0.2-0.4-0.4-0.5c-0.2-0.1-0.4-0.1-0.7-0.1c-0.3,0-0.5,0.1-0.8,0.2c-0.3,0.1-0.6,0.2-0.9,0.4
							c-0.3,0.2-0.6,0.3-0.9,0.5c-0.3,0.2-0.5,0.4-0.7,0.5c-0.2,0.2-0.3,0.4-0.3,0.6c-0.1,0.2,0,0.4,0.1,0.6
							c0.1,0.2,0.2,0.4,0.4,0.5c0.2,0.1,0.4,0.1,0.7,0.1c0.3,0,0.5-0.1,0.8-0.2C49.3,24.5,49.7,24.4,50,24.2"/>
						<path clip-path="url(#SVGID_3_)" fill="#F1664A" d="M59.8,13.5c-0.2-0.3-0.5-0.6-0.8-0.9c-0.3-0.3-0.6-0.5-1-0.7l-0.2-0.6
							l5.6-1.5l-0.3-1.2l0.7-0.2l0.9,3.4L64,12l-0.4-1.4l-4.4,1.2c0.1,0.1,0.2,0.1,0.3,0.2c0.1,0.1,0.2,0.2,0.3,0.3
							c0.1,0.1,0.2,0.2,0.3,0.3c0.1,0.1,0.2,0.2,0.3,0.4L59.8,13.5z"/>
						<path clip-path="url(#SVGID_3_)" fill="#F1664A" d="M54.3,11.3c-1.1-0.2-1.9-0.5-2.4-1c-0.5-0.5-0.7-1-0.6-1.7
							c0.1-0.7,0.5-1.1,1.1-1.4C53.1,7,54,6.9,55,7.1c1.1,0.2,1.9,0.5,2.4,1c0.5,0.5,0.7,1,0.6,1.7c-0.1,0.7-0.5,1.1-1.1,1.4
							C56.2,11.5,55.4,11.5,54.3,11.3 M54.9,8c-0.4-0.1-0.7-0.1-1-0.1c-0.3,0-0.6,0-0.9,0.1c-0.3,0.1-0.5,0.2-0.6,0.3
							c-0.2,0.1-0.3,0.3-0.3,0.6c0,0.2,0,0.4,0.1,0.6c0.1,0.2,0.3,0.3,0.5,0.5c0.2,0.1,0.5,0.3,0.8,0.4c0.3,0.1,0.6,0.2,1,0.2
							c0.4,0.1,0.7,0.1,1,0.1c0.3,0,0.6,0,0.9-0.1c0.3-0.1,0.5-0.1,0.6-0.3c0.2-0.1,0.3-0.3,0.3-0.6c0-0.2,0-0.4-0.1-0.6
							c-0.1-0.2-0.3-0.3-0.5-0.5c-0.2-0.1-0.5-0.3-0.8-0.4C55.6,8.1,55.2,8.1,54.9,8"/>
						<path clip-path="url(#SVGID_3_)" fill="#F1664A" d="M74.4,10c0.3,0.2,0.7,0.4,1.1,0.5c0.4,0.1,0.8,0.2,1.2,0.2l0.4,0.5
							l-4.5,3.5l0.8,1l-0.6,0.5l-2.2-2.8l0.6-0.5l0.9,1.1l3.6-2.8c-0.1,0-0.2,0-0.3-0.1c-0.1,0-0.3-0.1-0.4-0.1
							c-0.1-0.1-0.3-0.1-0.4-0.2c-0.1-0.1-0.3-0.1-0.4-0.2L74.4,10z"/>
						<path clip-path="url(#SVGID_3_)" fill="#F1664A" d="M64,14.1c0.4-1,0.8-1.7,1.4-2.2c0.6-0.4,1.1-0.5,1.8-0.3
							c0.6,0.2,1,0.7,1.2,1.4c0.1,0.7,0,1.5-0.3,2.6c-0.4,1-0.8,1.8-1.4,2.2c-0.5,0.4-1.1,0.5-1.8,0.3c-0.6-0.2-1-0.7-1.2-1.4
							C63.5,16,63.6,15.1,64,14.1 M67.2,15.3c0.1-0.3,0.2-0.7,0.3-1c0.1-0.3,0.1-0.6,0.1-0.9c0-0.3-0.1-0.5-0.2-0.7
							c-0.1-0.2-0.3-0.3-0.5-0.4c-0.2-0.1-0.4-0.1-0.6,0c-0.2,0.1-0.4,0.2-0.6,0.4c-0.2,0.2-0.3,0.4-0.5,0.7
							c-0.1,0.3-0.3,0.6-0.4,0.9c-0.1,0.3-0.2,0.7-0.3,1c-0.1,0.3-0.1,0.6-0.1,0.9c0,0.3,0.1,0.5,0.2,0.7c0.1,0.2,0.3,0.3,0.5,0.4
							c0.2,0.1,0.4,0.1,0.6,0c0.2-0.1,0.4-0.2,0.6-0.4c0.2-0.2,0.3-0.4,0.5-0.7C67,15.9,67.1,15.6,67.2,15.3"/>
						<path clip-path="url(#SVGID_3_)" fill="#F1664A" d="M54.9,19.6c0.3-0.2,0.6-0.5,0.9-0.8c0.3-0.3,0.5-0.6,0.7-1l0.6-0.2
							l1.5,5.6l1.2-0.3l0.2,0.7l-3.4,0.9l-0.2-0.7l1.4-0.4L56.5,19c-0.1,0.1-0.1,0.2-0.2,0.3c-0.1,0.1-0.2,0.2-0.3,0.3
							c-0.1,0.1-0.2,0.2-0.3,0.3c-0.1,0.1-0.2,0.2-0.4,0.3L54.9,19.6z"/>
						<path clip-path="url(#SVGID_3_)" fill="#F1664A" d="M72.8,11.9c-0.2,0.7-0.5,1.1-1.2,1.4c-0.6,0.2-1.2,0.1-1.8-0.3
							c-0.5-0.4-1-1.1-1.4-2.2c-0.4-1-0.5-1.9-0.3-2.6c0.1-0.7,0.5-1.1,1.2-1.4c0.6-0.2,1.2-0.1,1.8,0.3c0.6,0.4,1,1.1,1.4,2.2
							C72.9,10.3,73,11.2,72.8,11.9 M69.7,11.4c0.1,0.3,0.3,0.5,0.5,0.7c0.2,0.2,0.4,0.3,0.6,0.4c0.2,0.1,0.4,0.1,0.6,0
							c0.2-0.1,0.4-0.2,0.5-0.4c0.1-0.2,0.2-0.4,0.2-0.7c0-0.3,0-0.5-0.1-0.9c-0.1-0.3-0.2-0.6-0.3-1c-0.1-0.3-0.3-0.6-0.4-0.9
							C71.1,8.4,71,8.2,70.8,8c-0.2-0.2-0.4-0.3-0.6-0.4c-0.2-0.1-0.4-0.1-0.6,0c-0.2,0.1-0.4,0.2-0.5,0.4C69,8.2,69,8.4,68.9,8.6
							c0,0.3,0,0.5,0.1,0.9c0.1,0.3,0.2,0.6,0.3,1C69.4,10.8,69.6,11.1,69.7,11.4"/>
						<path clip-path="url(#SVGID_3_)" fill="#F1664A" d="M45.7,15.1c0.2-0.4,0.3-0.7,0.4-1.1c0.1-0.4,0.1-0.8,0.1-1.2l0.4-0.4
							l4.1,4.1l0.9-0.9l0.5,0.5l-2.5,2.5L49,18l1-1l-3.2-3.2c0,0.1,0,0.2,0,0.3c0,0.1-0.1,0.3-0.1,0.4c0,0.1-0.1,0.3-0.1,0.4
							c-0.1,0.1-0.1,0.3-0.2,0.4L45.7,15.1z"/>
					</g>
				</g>
			</g>
		</g>
	</g>
</g>
</svg>
