<?xml version="1.0" encoding="utf-8"?>
<!-- Generator: Adobe Illustrator 16.0.0, SVG Export Plug-In . SVG Version: 6.00 Build 0)  -->
<!DOCTYPE svg PUBLIC "-//W3C//DTD SVG 1.1//EN" "http://www.w3.org/Graphics/SVG/1.1/DTD/svg11.dtd">
<svg version="1.1" id="Layer_1" xmlns="http://www.w3.org/2000/svg" xmlns:xlink="http://www.w3.org/1999/xlink" x="0px" y="0px"
	 width="522px" height="343px" viewBox="35.14 248.445 522 343" enable-background="new 35.14 248.445 522 343"
	 xml:space="preserve">
<g>
	<path fill="#1D8B90" d="M148.82,567.86c-48.099,0-87.148-39.051-87.148-87.149c0-40.003,26.906-74.291,65.242-84.292
		c-0.237-2.143-0.237-4.048-0.237-5.953c0-31.431,25.716-57.147,57.146-57.147c13.097,0,25.716,4.524,35.955,12.62
		c20.478-43.575,64.767-71.91,113.579-71.91c69.291,0,125.485,56.195,125.485,125.485c0,2.144,0,4.286-0.238,6.668
		c42.146,2.856,75.481,38.098,75.481,80.958c0,39.526-29.288,73.338-67.624,80.005v1.191H148.82V567.86z"/>
	<path fill="#EFEAE2" d="M332.88,281.173c65.243,0,118.342,52.861,118.342,118.341c0,4.524-0.238,9.049-0.714,13.572
		c0.714,0,1.429,0,2.143,0c40.718,0,74.053,33.098,74.053,74.054c0,38.574-29.764,70.48-67.623,73.576v0.238H202.871H156.44h-7.62
		c-44.288,0-80.005-35.717-80.005-80.006c0-39.526,28.573-72.147,66.195-78.815c-0.953-3.81-1.429-7.619-1.429-11.667
		c0-27.621,22.382-50.003,50.003-50.003c15.478,0,29.288,6.905,38.336,18.096C238.588,313.318,282.163,281.173,332.88,281.173
		 M332.88,266.887c-48.574,0-93.102,26.906-116.198,68.576c-10.001-5.953-21.43-9.287-33.336-9.287
		c-35.479,0-64.29,28.812-64.29,64.291c0,0.238,0,0.476,0,0.714c-38.336,12.62-64.767,48.336-64.767,89.53
		c0,51.909,42.384,94.293,94.293,94.293h7.619h46.432h255.971h14.287v-2.382c16.905-4.048,32.145-13.096,44.051-25.954
		c15.001-16.43,23.335-37.621,23.335-59.766c0-44.289-32.622-80.958-75.244-87.388v-0.237
		C465.509,326.176,406.219,266.887,332.88,266.887L332.88,266.887z"/>
</g>
</svg>
