<?xml version="1.0" encoding="utf-8"?>
<!-- Generator: Adobe Illustrator 16.0.0, SVG Export Plug-In . SVG Version: 6.00 Build 0)  -->
<!DOCTYPE svg PUBLIC "-//W3C//DTD SVG 1.1//EN" "http://www.w3.org/Graphics/SVG/1.1/DTD/svg11.dtd">
<svg version="1.1" id="Layer_1" xmlns="http://www.w3.org/2000/svg" xmlns:xlink="http://www.w3.org/1999/xlink" x="0px" y="0px"
	 width="90px" height="53.999px" viewBox="0 0 90 53.999" enable-background="new 0 0 90 53.999" xml:space="preserve">
<g id="g16">
	<path id="path22" fill="#404040" d="M82.311,19.756c-1.604-0.938-3-1.392-4.268-1.392c-1.588,0-2.961,0.713-4.201,2.182
		c-2.338,2.76-2.826,8.506-3.163,11.403c-0.142,0.058-0.292,0.103-0.448,0.146c-0.406,0.121-0.787,0.239-0.934,0.426
		c1.226,1.425,1.469,3.842,1.705,6.171c0.18,1.803,0.365,3.663,0.893,4.928c0.293,0.058,0.703,0.093,1.256,0.093
		c0.258,0,0.531-0.006,0.8-0.006c0.458,0,0.909,0.02,1.265,0.127c-0.85-2.148-1.182-5.055-0.918-9.301
		c3.467-0.82,6.553-3.281,8.042-6.427C83.237,26.211,83.955,23.208,82.311,19.756L82.311,19.756z M68.266,24.677
		c-0.75-0.615-1.684-1.68-2.743-1.68h-0.239c-0.117,0-0.215,0.294-0.268,0.24l-0.025,1.109c-0.068,3.041-0.172,7.255-3.082,8.266
		c-0.277-1.826-0.351-3.818-0.42-5.606c-0.038-0.951-0.072-1.811-0.038-2.416c-0.282-0.132-0.546-0.279-0.8-0.435
		c-0.725-0.434-1.406-0.84-2.506-0.986c-0.435,5.23,0.088,8.696,1.562,10.294c0.605,0.659,1.387,0.995,2.319,0.995
		c0.655,0,1.396-0.162,2.139-0.424L65,33.5c0.631-0.723,0.555-0.877,1.099-1.836c0.202-0.355,0.415-0.796,0.63-1.143
		C67.689,28.983,68.599,27.333,68.266,24.677L68.266,24.677z M57.109,26.557c-0.381-0.307-0.703-0.664-1.025-1.03
		c-0.61-0.684-1.191-1.329-2.129-1.583c-0.195,0.005-0.234,0.146-0.254,0.581c-0.02,0.346-0.049,0.884-0.581,0.884l-0.366,0.005
		l0.02-0.127c0.127-1.552,0.014-3.344-0.112-5.326c-0.171-2.812-0.351-5.445,0.146-7.828c-0.615-0.742-1.562-1.132-3.389-1.132
		H49.35c-0.15,0-0.446,0.073-0.484-0.011c-0.943,2.896-0.325,5.523,0.115,8.995c0.254,1.978,0.492,3.819,0.199,5.611
		c-0.361,0-0.727-0.045-1.084-0.074c-0.312-0.025-0.625-0.059-0.903-0.059c-0.527,0-0.84,0.088-1.024,0.303
		c-0.215,0.24-0.279,0.65-0.264,1.143c0.717,0.499,1.967,0.532,3.178,0.562l0.762,0.17c0.029,1.061,0.112,2.066,0.195,3.076
		c0.122,1.48,0.244,3.013,0.215,4.678c0.317-0.044,0.605-0.058,0.889-0.078c0.537-0.033,1.05-0.063,1.631-0.136
		c-0.02-1.178-0.063-2.306-0.102-3.386c-0.06-1.512-0.118-2.948,0.018-4.5c0.533-0.156,1.184-0.19,1.809-0.225
		C55.547,27.011,56.631,26.952,57.109,26.557L57.109,26.557L57.109,26.557z M46.498,33.427c-0.146-0.479-0.561-0.743-1.176-0.933
		c-0.527,0.812-1.342,1.26-2.31,1.26c-1.02,0-2.042-0.518-2.651-1.362c-0.586-0.802-0.728-1.802-0.21-2.925
		c0.825,0.172,1.636,0.328,2.393,0.328c0.625,0,1.191-0.104,1.665-0.156c-0.146-1.837,0.068-3.121,0.293-4.483
		c0.185-1.138,0.38-2.315,0.424-3.735c-1.049-0.791-2.163-1.196-3.402-1.304c-3.062,2.344-4.483,5.933-4.352,10.942
		c0.42,2.217,3.34,3.59,5.812,3.59C44.487,34.649,45.752,34.16,46.498,33.427L46.498,33.427z M37.382,34.111
		c-0.287-0.522-0.702-0.767-1.293-0.767c-0.454,0-0.966,0.127-1.465,0.264c-0.507,0.137-1.03,0.27-1.499,0.27
		c-0.127,0-0.249-0.035-0.371-0.059c-0.562-0.107-1.02-0.461-1.353-0.953c-0.6-0.894-0.748-2.354-0.21-4.136
		c0.869,0.235,1.958,0.269,3.155,0.269h0.292c0.308,0,0.586,0.098,0.766,0.172c0.586-2.383,0.269-5.636-0.2-7.506
		c-0.366-0.074-0.689-0.21-1.011-0.317c-0.566-0.195-1.098-0.385-1.821-0.385c-0.126,0-0.254-0.005-0.385,0.009
		c-2.295,0.307-3.857,3.531-4.213,6.557c-0.328,2.795,0.273,6.148,2.943,7.18c0.553,0.21,1.235,0.317,2.031,0.317
		C34.336,35.025,36.181,34.58,37.382,34.111L37.382,34.111z M19.078,15.527c-2.008,2.71-2.696,6.373-3.599,10.083
		c-0.503-0.879-0.962-1.783-1.416-2.705c-0.806-1.621-1.636-3.286-2.578-4.624c-0.264-0.02-0.522-0.025-0.768-0.025
		c-1.079,0-2.055,0.196-2.979,0.465l-0.044,2.49c-0.103,4.278-0.19,7.969,0.889,11.456c0.2,0.033,0.405,0.053,0.606,0.053
		c1.294,0,2.437-0.635,2.929-0.883c0.084-1.094-0.054-1.949-0.195-2.856c-0.074-0.466-0.151-0.935,0.092-1.539
		c0.752,0.972,1.412,2.036,2.066,3.102c0.42,0.679,0.835,1.347,1.156,1.929c0.215,0.023,0.42,0.029,0.616,0.029
		c0.502,0,0.951-0.06,1.396-0.123c0.463-0.059,0.917-0.121,1.445-0.121l0.297,0.112c0.591-1.319,0.625-3.258,0.655-5.138
		c0.029-1.724,0.059-3.501,0.825-4.824c0.835,3.848,1.973,7.587,3.471,11.419c0.528-0.072,1.109-0.253,1.651-0.418
		c0.4-0.123,0.766-0.245,1.054-0.245c0.147,0,0.274,0.069,0.381,0.143l0,0c-0.894-2.462-1.47-5.245-2.026-7.974
		c-0.717-3.506-1.46-7.066-2.715-9.844c-0.151,0.014-0.297,0.151-0.44,0.151c-0.444,0-0.83,0.107-1.215,0.044 M90,50.786
		c0,1.773-1.439,3.213-3.213,3.213H3.212C1.44,53.999,0,52.559,0,50.786V3.212C0,1.44,1.44,0,3.212,0h83.575
		C88.561,0,90,1.44,90,3.212V50.786z M31.748,27.407c0.137,0.054,0.289,0.118,0.504,0.118l0.107-0.024l0.259-0.128
		c0.2-0.986,0.136-2.26-0.171-3.505c-0.792,0.897-1.274,1.948-1.455,3.292l-0.025,0.18l0.401-0.02
		C31.519,27.315,31.626,27.358,31.748,27.407L31.748,27.407z M78.711,20.806l-0.15,0.141c-2.569,2.421-3.502,6.538-4.176,10.2
		c2.148-0.576,3.971-2.559,4.756-4.741c0.482-1.329,0.811-3.355-0.326-5.42L78.711,20.806z M41.119,28.325
		c-0.304,0-0.606-0.023-0.831-0.342c0.069-1.19,0.46-2.08,0.835-2.939c0.171-0.385,0.342-0.771,0.479-1.186l0.167-0.489l0.141,0.494
		c0.328,1.152,0.225,3.296-0.282,4.453L41.119,28.325"/>
</g>
</svg>
