<?xml version="1.0" encoding="utf-8"?>
<!-- Generator: Adobe Illustrator 16.0.0, SVG Export Plug-In . SVG Version: 6.00 Build 0)  -->
<!DOCTYPE svg PUBLIC "-//W3C//DTD SVG 1.1//EN" "http://www.w3.org/Graphics/SVG/1.1/DTD/svg11.dtd">
<svg version="1.1" id="Layer_1" xmlns="http://www.w3.org/2000/svg" xmlns:xlink="http://www.w3.org/1999/xlink" x="0px" y="0px"
	 width="97.748px" height="97.749px" viewBox="0 0 97.748 97.749" enable-background="new 0 0 97.748 97.749" xml:space="preserve">
<g id="g16">
	<path id="path22" fill="#FFFFFF" d="M46.772,47.622c0.103-1.28,0.054-2.563,0.074-3.847c-0.118-0.025-0.23-0.054-0.348-0.079
		c-0.581,1.642-1.161,3.281-1.747,4.937C46.547,49.175,46.655,49.145,46.772,47.622L46.772,47.622"/>
	<path id="path24" fill="#FFFFFF" d="M80.264,52.875c3.945-2.041,5.85-6.323,4.35-10.171C81.498,45.405,81.035,49.145,80.264,52.875
		L80.264,52.875"/>
	<path id="path26" fill="#FFFFFF" d="M35.269,47.846c-0.03-1.386-0.059-2.695-0.087-3.999c-0.123-0.029-0.24-0.059-0.357-0.087
		c-0.331,0.85-0.732,1.675-0.971,2.549C33.458,47.758,33.501,47.769,35.269,47.846L35.269,47.846"/>
	<path id="path28" fill="#FFFFFF" d="M86.324,52.446c-1.373,1.158-2.75,2.334-4.195,3.395c-0.547,0.399-1.304,0.507-1.982,0.756
		c-0.443,1.934-0.186,4.723,0.879,9.072c-1.104,0.035-2.188,0.107-3.271,0.059c-0.18-0.01-0.454-0.508-0.498-0.805
		c-0.4-2.617-0.747-5.25-1.152-7.866c-0.068-0.435-0.283-0.935-0.596-1.227c-0.923-0.868-0.85-1.532,0.289-2.124
		c0.209-0.111,0.351-0.473,0.399-0.747c0.479-2.354,0.796-4.751,1.411-7.065c0.679-2.549,2.154-4.639,4.57-5.845
		c0.645-0.322,1.562-0.259,2.324-0.146c0.713,0.103,1.367,0.6,2.08,0.766c1.943,0.454,2.406,2.002,2.588,3.599
		C89.516,47.407,88.881,50.288,86.324,52.446L86.324,52.446z M71.471,56.132c-0.387,0.405-0.875,0.854-1.393,0.973
		c-0.918,0.214-1.895,0.277-2.847,0.253c-1.104-0.024-1.812-0.811-2.021-1.771c-0.556-2.516-0.976-5.055-1.406-7.598
		c-0.122-0.728-0.093-1.49-0.063-2.233c0.029-1.048,0.527-1.376,1.533-1.054c0.303,0.098,0.586,0.254,0.879,0.385
		c1.957,0.86,1.914,0.918,1.934,3.003c0.023,2.125,0.215,4.248,0.352,6.372c0.016,0.235,0.137,0.464,0.244,0.815
		c2.285-1.948,2.945-4.379,2.935-7.07c-0.005-0.625-0.226-1.259-0.185-1.879c0.023-0.45,0.223-0.962,0.521-1.285
		c0.181-0.195,0.729-0.151,1.064-0.059c0.508,0.137,0.971,0.42,1.46,0.635c1.128,0.484,1.382,1.314,1.333,2.52
		c-0.083,2.451-1.309,4.283-2.812,6.041C72.461,54.805,72.036,55.532,71.471,56.132L71.471,56.132z M63.335,49.379
		c-1.239,0.172-2.485,0.352-3.735,0.513c-0.435,0.054-0.806,0.025-0.758,0.708c0.09,1.192,0.025,2.396,0.055,3.599
		c0.029,1.206,0.098,2.407,0.15,3.722c-0.927,0.15-1.811,0.297-2.836,0.469c-0.078-1.396-0.137-2.726-0.225-4.049
		c-0.093-1.338-0.215-2.676-0.332-4.121c-0.908-0.053-1.748-0.127-2.588-0.141c-0.791-0.016-1.348-0.255-1.273-1.158
		c0.062-0.898,0.639-1.191,1.463-1.143c0.694,0.044,1.393,0.062,2.169,0.103c-0.294-2.798-0.62-5.43-0.825-8.071
		c-0.146-1.905-0.22-3.829-0.171-5.737c0.049-2.031,0.917-2.505,2.759-1.68c1.895,0.85,1.797,0.953,1.752,2.979
		c-0.066,3.115,0.123,6.23,0.162,9.345c0.005,0.689-0.2,1.368-0.234,2.057c-0.01,0.264,0.186,0.537,0.287,0.81
		c0.146-0.214,0.396-0.424,0.416-0.649c0.059-0.659,0.488-0.909,0.918-0.576c1.059,0.81,2.021,1.752,3.018,2.646
		C63.453,49.126,63.394,49.252,63.335,49.379L63.335,49.379L63.335,49.379z M47.377,57.348c-0.756-0.166-1.558-0.15-2.309-0.342
		c-2.75-0.703-4.38-3.09-4.478-5.947c-0.094-2.758,0.581-5.355,1.704-7.75c0.801-1.708,2.29-3.105,3.569-4.555
		c0.23-0.269,0.967-0.259,1.401-0.141c0.947,0.258,1.89,0.605,2.764,1.048c0.327,0.167,0.674,0.724,0.654,1.085
		c-0.078,1.509-0.303,3.008-0.445,4.517c-0.17,1.792-0.316,3.583-0.477,5.483c-1.642,1.031-3.434,0.391-5.24,0.146
		c-0.582,1.768,0.253,3.008,1.275,4.186c0.84,0.971,1.934,1.016,3.027,0.629c0.654-0.234,1.209-0.736,1.85-1.04
		c0.279-0.136,0.664-0.171,0.963-0.098c0.717,0.181,1.156,0.649,1.166,1.528C51.104,56.967,49.414,57.788,47.377,57.348
		L47.377,57.348z M31.591,56.563c-1.812-1.158-2.539-2.637-2.509-4.674c0.039-2.396-0.035-4.794,0.634-7.148
		c0.532-1.895,1.836-3.091,3.228-4.346c1.387-1.245,2.73-0.771,4.239-0.513c1.675,0.289,1.982,1.393,2.056,2.72
		c0.131,2.329,0.59,4.649,0.024,6.988c-0.142,0.591-0.318,0.893-0.933,0.858c-1.621-0.088-3.238-0.171-4.975-0.259
		c-0.205,1.557-0.284,3.116,0.625,4.518c0.879,1.352,2.045,1.625,3.579,0.928c1.343-0.61,2.779-0.295,3.876,0.854
		C38.926,58.282,34.101,58.164,31.591,56.563L31.591,56.563z M26.514,57.94c-0.688,0.199-0.909-0.064-1.104-0.709
		c-1.113-3.686-2.28-7.359-3.481-11.191c-0.063,0.498-0.146,0.904-0.166,1.314c-0.118,2.237-0.205,4.467-0.332,6.699
		c-0.03,0.527-0.089,1.099-0.309,1.558c-0.16,0.332-0.59,0.635-0.961,0.748c-0.532,0.16-1.147,0.053-1.68,0.215
		c-1.372,0.41-2.109-0.295-2.734-1.363c-0.768-1.313-1.587-2.598-2.388-3.891c-0.059,0-0.112,0.005-0.166,0.01
		c0.151,1.191,0.282,2.383,0.479,3.563c0.106,0.685-0.166,1.089-0.768,1.338c-0.131,0.054-0.249,0.132-0.38,0.181
		C9.877,57.426,9.36,57.07,8.94,54.301c-0.61-3.994-0.458-7.998-0.317-12.006c0.005-0.23,0.264-0.551,0.489-0.654
		c0.445-0.201,0.942-0.312,1.431-0.396c1.958-0.322,2.47-0.063,3.384,1.675c0.902,1.729,1.796,3.461,2.705,5.195
		c0.121,0.235,0.269,0.454,0.449,0.763c0.405-1.92,0.684-3.736,1.186-5.489c0.474-1.66,1.143-3.271,1.812-4.869
		c0.117-0.288,0.645-0.571,0.982-0.577c0.956-0.003,1.967-0.039,2.841,0.279c0.527,0.19,1.04,0.938,1.211,1.539
		c0.605,2.075,1.074,4.188,1.562,6.298c0.85,3.687,1.675,7.382,2.534,11.176C28.422,57.441,27.461,57.661,26.514,57.94L26.514,57.94
		z M48.877,0C21.885,0,0,21.88,0,48.877c0,26.991,21.885,48.871,48.877,48.871c26.992,0,48.871-21.88,48.871-48.871
		C97.748,21.88,75.869,0,48.877,0L48.877,0"/>
</g>
</svg>
