<?xml version="1.0" encoding="utf-8"?>
<!-- Generator: Adobe Illustrator 18.1.1, SVG Export Plug-In . SVG Version: 6.00 Build 0)  -->
<svg version="1.1" id="Layer_1" xmlns="http://www.w3.org/2000/svg" xmlns:xlink="http://www.w3.org/1999/xlink" x="0px" y="0px"
	 viewBox="0 0 134 94" enable-background="new 0 0 134 94" xml:space="preserve">
<path id="XMLID_428_" fill="#50A3A6" d="M112.6,44.8c-0.2,0-0.4,0-0.6,0c0.2-1.3,0.2-2.6,0.2-4c0-19.1-15.5-34.6-34.6-34.6
	c-14.9,0-27.6,9.4-32.5,22.6c-2.7-3.2-6.7-5.3-11.2-5.3c-8.1,0-14.6,6.6-14.6,14.6c0,1.2,0.1,2.3,0.4,3.4
	C8.7,43.5,0.3,53.1,0.3,64.6c0,12.9,10.5,23.4,23.4,23.4H26c7.3-7.3,16.3-16.3,16.9-16.9c1.1-1.1,3.9-1.1,3.9-1.1s2.8-2.8,5.7-5.7
	c2.9-2.9-2.1-7.8-2.1-7.8l-6.9-6.9C70,23.2,89.6,31.2,89.6,31.2s8,19.6-18.5,46.2l-6.9-6.9c0,0-4.9-4.9-7.8-2.1
	c-2.9,2.9-5.7,5.7-5.7,5.7s0,2.9-1.1,3.9c-0.4,0.4-4.9,4.9-10.1,10.1h75V88c11.1-0.9,19.8-10.2,19.8-21.6
	C134.3,54.5,124.6,44.8,112.6,44.8z"/>
</svg>
