<?xml version="1.0" encoding="utf-8"?>
<!-- Generator: Adobe Illustrator 16.0.0, SVG Export Plug-In . SVG Version: 6.00 Build 0)  -->
<!DOCTYPE svg PUBLIC "-//W3C//DTD SVG 1.1//EN" "http://www.w3.org/Graphics/SVG/1.1/DTD/svg11.dtd">
<svg version="1.1" id="Layer_1" xmlns="http://www.w3.org/2000/svg" xmlns:xlink="http://www.w3.org/1999/xlink" x="0px" y="0px"
	 width="290.839px" height="121.709px" viewBox="0 0 290.839 121.709" enable-background="new 0 0 290.839 121.709"
	 xml:space="preserve">
<path fill="#EE5A4C" d="M61.116,30.428c-16.803-0.14-30.539,13.371-30.678,30.175c-0.059,7.069,2.306,13.588,6.307,18.786
	c1.565-1.54,2.645-2.602,2.824-2.777c0.805-0.79,2.932-0.772,2.932-0.772s2.088-2.052,4.233-4.165
	c2.146-2.112-1.489-5.806-1.489-5.806l-5.075-5.159c19.846-19.528,34.342-13.482,34.342-13.482s5.807,14.594-14.038,34.121
	l-5.076-5.16c0,0-3.634-3.693-5.779-1.584c-2.148,2.114-4.235,4.166-4.235,4.166s-0.014,2.128-0.821,2.92
	c-0.18,0.177-1.268,1.248-2.845,2.8c5.165,4.19,11.726,6.732,18.895,6.791c16.805,0.14,30.539-13.37,30.678-30.175
	C91.43,44.302,77.922,30.567,61.116,30.428z"/>
<g>
	<path fill="#424242" d="M110.217,71.139c1.571,0,2.682-0.152,3.334-0.46c0.651-0.307,0.977-0.899,0.977-1.782
		c0-0.689-0.422-1.293-1.265-1.811c-0.843-0.517-2.126-1.101-3.851-1.753c-1.342-0.497-2.558-1.015-3.65-1.552
		c-1.092-0.535-2.022-1.179-2.788-1.926c-0.766-0.747-1.36-1.638-1.781-2.673c-0.422-1.034-0.633-2.279-0.633-3.736
		c0-2.835,1.054-5.077,3.162-6.725c2.107-1.647,5-2.472,8.679-2.472c1.839,0,3.602,0.163,5.289,0.488
		c1.685,0.326,3.026,0.681,4.023,1.063l-1.495,6.668c-0.996-0.346-2.079-0.651-3.247-0.92c-1.17-0.268-2.482-0.402-3.938-0.402
		c-2.682,0-4.023,0.747-4.023,2.241c0,0.345,0.058,0.652,0.172,0.92c0.116,0.27,0.345,0.527,0.69,0.776
		c0.345,0.249,0.814,0.519,1.408,0.808c0.594,0.29,1.351,0.609,2.271,0.956c1.877,0.696,3.429,1.382,4.656,2.058
		c1.226,0.676,2.193,1.406,2.902,2.189c0.709,0.784,1.208,1.654,1.495,2.61c0.287,0.956,0.431,2.064,0.431,3.325
		c0,2.983-1.121,5.239-3.362,6.769c-2.242,1.528-5.414,2.294-9.514,2.294c-2.682,0-4.914-0.229-6.696-0.689
		c-1.782-0.46-3.018-0.843-3.708-1.149l1.438-6.956c1.456,0.575,2.95,1.026,4.483,1.352
		C107.208,70.977,108.722,71.139,110.217,71.139"/>
	<path fill="#424242" d="M155.166,47.055c-1.729,5.825-3.534,11.285-5.417,16.382c-1.882,5.097-3.938,10.04-6.166,14.83
		c-0.807,1.724-1.612,3.189-2.418,4.396c-0.806,1.208-1.689,2.203-2.648,2.989c-0.959,0.785-2.044,1.36-3.252,1.725
		c-1.209,0.363-2.62,0.546-4.231,0.546c-1.344,0-2.582-0.125-3.714-0.373c-1.131-0.25-2.062-0.527-2.791-0.834l1.494-6.84
		c0.883,0.306,1.668,0.517,2.358,0.632s1.419,0.173,2.186,0.173c1.534,0,2.712-0.412,3.536-1.236c0.825-0.823,1.524-1.964,2.1-3.42
		c-1.956-3.831-3.912-8.134-5.867-12.903c-1.955-4.771-3.795-10.127-5.52-16.066h9.082c0.385,1.494,0.837,3.113,1.357,4.857
		c0.519,1.743,1.068,3.506,1.646,5.287c0.576,1.782,1.164,3.517,1.76,5.202c0.596,1.687,1.165,3.22,1.704,4.599
		c0.499-1.379,1.019-2.912,1.558-4.599c0.539-1.686,1.068-3.42,1.587-5.202c0.519-1.781,1.02-3.544,1.501-5.287
		c0.481-1.744,0.913-3.363,1.299-4.857H155.166z"/>
	<path fill="#424242" d="M167.236,71.139c1.571,0,2.683-0.152,3.334-0.46c0.651-0.307,0.978-0.899,0.978-1.782
		c0-0.689-0.422-1.293-1.265-1.811c-0.844-0.517-2.127-1.101-3.852-1.753c-1.342-0.497-2.558-1.015-3.65-1.552
		c-1.092-0.535-2.021-1.179-2.787-1.926s-1.36-1.638-1.781-2.673c-0.422-1.034-0.633-2.279-0.633-3.736
		c0-2.835,1.054-5.077,3.162-6.725c2.106-1.647,5-2.472,8.679-2.472c1.839,0,3.603,0.163,5.289,0.488
		c1.685,0.326,3.026,0.681,4.022,1.063l-1.494,6.668c-0.996-0.346-2.08-0.651-3.248-0.92c-1.168-0.268-2.481-0.402-3.938-0.402
		c-2.682,0-4.023,0.747-4.023,2.241c0,0.345,0.059,0.652,0.172,0.92c0.117,0.27,0.346,0.527,0.69,0.776s0.813,0.519,1.409,0.808
		c0.594,0.29,1.35,0.609,2.27,0.956c1.877,0.696,3.43,1.382,4.656,2.058s2.193,1.406,2.903,2.189
		c0.708,0.784,1.207,1.654,1.494,2.61c0.286,0.956,0.431,2.064,0.431,3.325c0,2.983-1.121,5.239-3.361,6.769
		c-2.242,1.528-5.414,2.294-9.515,2.294c-2.683,0-4.914-0.229-6.696-0.689c-1.781-0.46-3.018-0.843-3.707-1.149l1.438-6.956
		c1.456,0.575,2.949,1.026,4.482,1.352C164.228,70.977,165.742,71.139,167.236,71.139"/>
	<path fill="#424242" d="M211.956,76.312c-0.767,0.23-1.647,0.451-2.644,0.661c-0.998,0.211-2.041,0.393-3.134,0.546
		c-1.092,0.152-2.204,0.277-3.334,0.374c-1.131,0.096-2.213,0.144-3.247,0.144c-2.492,0-4.714-0.365-6.668-1.092
		c-1.953-0.728-3.604-1.773-4.943-3.133c-1.342-1.359-2.366-3.008-3.075-4.943c-0.71-1.935-1.063-4.109-1.063-6.524
		c0-2.451,0.307-4.664,0.92-6.639c0.612-1.974,1.494-3.65,2.645-5.029c1.148-1.38,2.558-2.434,4.224-3.162
		c1.667-0.727,3.573-1.093,5.72-1.093c1.188,0,2.252,0.116,3.19,0.346c0.938,0.23,1.888,0.557,2.845,0.978V34.064l8.565-1.379
		V76.312z M192.584,61.942c0,2.645,0.594,4.771,1.782,6.381c1.187,1.609,2.949,2.414,5.287,2.414c0.767,0,1.476-0.028,2.127-0.086
		c0.652-0.058,1.188-0.124,1.609-0.201V54.873c-0.537-0.346-1.236-0.633-2.098-0.862c-0.861-0.23-1.734-0.345-2.615-0.345
		C194.615,53.666,192.584,56.424,192.584,61.942"/>
	<path fill="#424242" d="M228.222,38.318c0,1.571-0.51,2.808-1.524,3.707c-1.015,0.901-2.213,1.352-3.592,1.352
		c-1.38,0-2.578-0.45-3.593-1.352c-1.016-0.899-1.523-2.136-1.523-3.707s0.508-2.807,1.523-3.708
		c1.015-0.899,2.213-1.351,3.593-1.351c1.379,0,2.577,0.451,3.592,1.351C227.712,35.511,228.222,36.747,228.222,38.318
		 M227.417,77.29h-8.565V47.055h8.565V77.29z"/>
	<path fill="#424242" d="M260.41,73.496c0,4.943-1.255,8.612-3.766,11.008c-2.51,2.395-6.389,3.593-11.639,3.593
		c-1.84,0-3.68-0.164-5.519-0.489s-3.545-0.757-5.116-1.293l1.495-7.186c1.341,0.537,2.749,0.958,4.226,1.265
		c1.474,0.307,3.151,0.46,5.028,0.46c2.452,0,4.187-0.537,5.202-1.609c1.016-1.073,1.523-2.452,1.523-4.139v-1.092
		c-0.92,0.422-1.869,0.738-2.846,0.948s-2.039,0.316-3.189,0.316c-4.178,0-7.377-1.236-9.6-3.708s-3.334-5.929-3.334-10.375
		c0-2.222,0.346-4.243,1.034-6.063c0.69-1.82,1.696-3.382,3.019-4.686c1.322-1.302,2.94-2.308,4.856-3.018
		c1.916-0.708,4.082-1.063,6.496-1.063c1.034,0,2.099,0.049,3.19,0.144c1.092,0.097,2.174,0.222,3.246,0.374
		c1.073,0.153,2.1,0.336,3.076,0.546c0.977,0.211,1.848,0.432,2.615,0.662V73.496z M241.614,61.195c0,4.791,1.935,7.187,5.806,7.187
		c0.881,0,1.704-0.116,2.471-0.346c0.767-0.23,1.418-0.498,1.955-0.806V53.55c-0.422-0.076-0.92-0.144-1.494-0.201
		c-0.575-0.058-1.246-0.087-2.012-0.087c-2.263,0-3.947,0.748-5.059,2.241C242.169,56.999,241.614,58.896,241.614,61.195"/>
</g>
</svg>
