<?xml version="1.0" encoding="utf-8"?>
<!-- Generator: Adobe Illustrator 19.2.1, SVG Export Plug-In . SVG Version: 6.00 Build 0)  -->
<svg version="1.1"
	 id="svg2" xmlns:cc="http://creativecommons.org/ns#" xmlns:dc="http://purl.org/dc/elements/1.1/" xmlns:rdf="http://www.w3.org/1999/02/22-rdf-syntax-ns#" xmlns:svg="http://www.w3.org/2000/svg"
	 xmlns="http://www.w3.org/2000/svg" xmlns:xlink="http://www.w3.org/1999/xlink" x="0px" y="0px" viewBox="0 0 400 400"
	 style="enable-background:new 0 0 400 400;" xml:space="preserve">
<style type="text/css">
	.st0{clip-path:url(#SVGID_2_);}
	.st1{opacity:0.6;clip-path:url(#SVGID_4_);}
	.st2{fill:#777777;}
</style>
<g>
	<g>
		<g id="g10" transform="matrix(1.3333333,0,0,-1.3333333,0,400)">
			<defs>
				<rect id="SVGID_1_" x="-50" y="-50" width="400" height="400"/>
			</defs>
			<clipPath id="SVGID_2_">
				<use xlink:href="#SVGID_1_"  style="overflow:visible;"/>
			</clipPath>
			<g id="g12" class="st0">
				<g id="g14">
					<g id="g22">
					</g>
					<g id="g20">
						<g id="g34">
							<defs>
								<rect id="SVGID_3_" x="-48.7" y="-49" width="397.5" height="397.5"/>
							</defs>
							<clipPath id="SVGID_4_">
								<use xlink:href="#SVGID_3_"  style="overflow:visible;"/>
							</clipPath>
							<g id="g32" class="st1">
								<g id="g30" transform="translate(218.7219,40.7807)">
									<path id="path28" class="st2" d="M0,0c1.8,7.6,3.5,14.9,5.2,22.2c0.6,2.6,1.3,5.3,2,7.9c4,16.5,6.2,18.2,23.8,18.5
										C32.9,28.1,17.2,2.7,0,0 M-24.7,13.2c5.2,19.4,13.5,27.9,28.6,29.1C1.2,27.1-12.7,13.2-24.7,13.2 M-41.6,44.5
										c-15.2,4.4-29.4,10.9-43.7,20c2.2,0.5,3.2,0.8,4.2,0.9C-43,67-5,68.7,33.1,70.3c10.8,0.5,12.6-0.9,16.5-12
										c-12.2-2.6-24.3-5.3-36.4-7.9C3.2,48.3-7,46.6-16.9,44C-25.4,41.8-33.5,42.2-41.6,44.5 M-101.3,113.2
										c40.3-5.3,80.6-11,121-15.7C32.6,96,36.3,87.2,41.2,77.4c-6.8-0.4-12.9-0.8-19-1c-23.2-0.9-46.3-1.5-69.5-2.6
										c-9.4-0.4-18.2,1.3-26.6,5.4c-18.9,9.1-35.5,21.4-50.6,36.8C-116.7,115-109,114.2-101.3,113.2 M-169.2,173.3
										c0.3,0.3,0.6,0.6,0.9,1c28.9-7.6,57.8-15.2,86.8-22.8c27.4-7.2,54.8-15,82.4-21.4c14.7-3.4,21.1-13.7,27-26.6
										c-16,2-31.2,4-46.4,5.9c-23,2.9-45.9,5.8-68.9,9c-5.3,0.7-10.8,2-15.6,4.4c-22.8,11.4-43,26.5-61,44.5
										C-166,169.1-167.5,171.3-169.2,173.3 M36.7,45.5c0.1,3.4,0.5,6.6,4.5,6.9c4.4,0.3,9.5,4.4,13.1-1.7c2.6-4.3,5.2-8.7,7.8-13
										C73.7,58.8,80.3,83.1,80.3,109c0,82.3-66.7,149.1-149.1,149.1S-217.8,191.3-217.8,109S-151-40.1-68.7-40.1
										c40.6,0,77.5,16.3,104.4,42.7c0,1.4,0,2.9,0,4.3C36,19.8,36.4,32.6,36.7,45.5"/>
								</g>
							</g>
						</g>
					</g>
				</g>
			</g>
		</g>
	</g>
</g>
</svg>
