<?xml version="1.0" encoding="utf-8"?>
<!-- Generator: Adobe Illustrator 19.2.1, SVG Export Plug-In . SVG Version: 6.00 Build 0)  -->
<svg version="1.1"
	 id="svg2" xmlns:cc="http://creativecommons.org/ns#" xmlns:dc="http://purl.org/dc/elements/1.1/" xmlns:rdf="http://www.w3.org/1999/02/22-rdf-syntax-ns#" xmlns:svg="http://www.w3.org/2000/svg"
	 xmlns="http://www.w3.org/2000/svg" xmlns:xlink="http://www.w3.org/1999/xlink" x="0px" y="0px" viewBox="0 0 856 158.7"
	 style="enable-background:new 0 0 856 158.7;" xml:space="preserve">
<style type="text/css">
	.st0{clip-path:url(#SVGID_2_);}
	.st1{fill:#FFFFFF;}
</style>
<g id="g10" transform="matrix(1.3333333,0,0,-1.3333333,0,158.66667)">
	<g id="g12">
		<g>
			<defs>
				<rect id="SVGID_1_" x="-107" y="-19.8" width="856" height="158.7"/>
			</defs>
			<clipPath id="SVGID_2_">
				<use xlink:href="#SVGID_1_"  style="overflow:visible;"/>
			</clipPath>
			<g id="g14" class="st0">
				<g id="g20" transform="translate(180.1682,49.675)">
					<path id="path22" class="st1" d="M0,0c2.5,0,4.3,0.2,5.3,0.7c1,0.5,1.5,1.4,1.5,2.8c0,1.1-0.7,2.1-2,2.9
						C3.5,7.2,1.5,8.2-1.3,9.2c-2.1,0.8-4.1,1.6-5.8,2.5c-1.7,0.8-3.2,1.9-4.4,3.1c-1.2,1.2-2.2,2.6-2.8,4.2c-0.7,1.6-1,3.6-1,5.9
						c0,4.5,1.7,8.1,5,10.7c3.3,2.6,7.9,3.9,13.8,3.9c2.9,0,5.7-0.3,8.4-0.8c2.7-0.5,4.8-1.1,6.4-1.7l-2.4-10.6
						c-1.6,0.5-3.3,1-5.2,1.5c-1.9,0.4-3.9,0.6-6.2,0.6c-4.3,0-6.4-1.2-6.4-3.6c0-0.5,0.1-1,0.3-1.5c0.2-0.4,0.5-0.8,1.1-1.2
						C0,21.9,0.7,21.5,1.7,21c0.9-0.5,2.1-1,3.6-1.5c3-1.1,5.4-2.2,7.4-3.3c1.9-1.1,3.5-2.2,4.6-3.5c1.1-1.2,1.9-2.6,2.4-4.1
						c0.5-1.5,0.7-3.3,0.7-5.3c0-4.7-1.8-8.3-5.3-10.7C11.4-9.8,6.4-11-0.1-11c-4.3,0-7.8,0.4-10.6,1.1c-2.8,0.7-4.8,1.3-5.9,1.8
						l2.3,11C-12,2-9.6,1.3-7.2,0.8C-4.8,0.3-2.4,0,0,0"/>
				</g>
				<g id="g24" transform="translate(251.4652,88.5)">
					<path id="path26" class="st1" d="M0,0c-2.7-9-5.6-18.2-8.6-26.3c-3-8.1-6.2-16.1-9.8-23.7c-1.3-2.7-2.6-5.1-3.8-7.1
						c-1.3-1.9-2.7-3.5-4.2-4.8c-1.5-1.2-3.2-2.2-5.2-2.8c-1.9-0.6-4.2-0.9-6.7-0.9c-2.1,0-4.1,0.2-5.9,0.6
						c-1.8,0.4-3.3,0.8-4.4,1.3l2.4,10.8c1.4-0.5,2.6-0.8,3.7-1c1.1-0.2,2.3-0.3,3.5-0.3c2.4,0,4.3,0.7,5.6,2
						c1.3,1.3,2.4,3.1,3.3,5.4c-3.1,6.1-6.2,13.2-9.3,20.8c-3.1,7.6-6,15.8-8.8,25.8h14.4c0.6-3,1.3-5.3,2.2-8
						c0.8-2.8,1.7-5.7,2.6-8.5c0.9-2.8,1.8-5.7,2.8-8.3c0.9-2.7,1.8-5.1,2.7-7.3c0.8,2.2,1.6,4.6,2.5,7.3c0.9,2.7,1.7,5.4,2.5,8.2
						c0.8,2.8,1.6,5.9,2.4,8.7c0.8,2.8,1.4,5,2.1,8L0,0z"/>
				</g>
				<g id="g28" transform="translate(270.6128,49.675)">
					<path id="path30" class="st1" d="M0,0c2.5,0,4.3,0.2,5.3,0.7c1,0.5,1.6,1.4,1.6,2.8c0,1.1-0.7,2.1-2,2.9
						C3.5,7.2,1.5,8.2-1.3,9.2c-2.1,0.8-4.1,1.6-5.8,2.5c-1.7,0.8-3.2,1.9-4.4,3.1c-1.2,1.2-2.2,2.6-2.8,4.2c-0.7,1.6-1,3.6-1,5.9
						c0,4.5,1.7,8.1,5,10.7c3.3,2.6,7.9,3.9,13.8,3.9c2.9,0,5.7-0.3,8.4-0.8c2.7-0.5,4.8-1.1,6.4-1.7l-2.4-10.6
						c-1.6,0.5-3.3,1-5.2,1.5c-1.9,0.4-3.9,0.6-6.2,0.6c-4.3,0-6.4-1.2-6.4-3.6c0-0.5,0.1-1,0.3-1.5c0.2-0.4,0.5-0.8,1.1-1.2
						C0,21.9,0.7,21.5,1.7,21c0.9-0.5,2.1-1,3.6-1.5c3-1.1,5.4-2.2,7.4-3.3c1.9-1.1,3.5-2.2,4.6-3.5c1.1-1.2,1.9-2.6,2.4-4.1
						c0.5-1.5,0.7-3.3,0.7-5.3c0-4.7-1.8-8.3-5.3-10.7C11.4-9.8,6.4-11-0.1-11c-4.3,0-7.8,0.4-10.6,1.1c-2.8,0.7-4.8,1.3-5.9,1.8
						l2.3,11C-12,2-9.6,1.3-7.2,0.8C-4.8,0.3-2.4,0,0,0"/>
				</g>
				<g id="g32" transform="translate(310.8208,64.2638)">
					<path id="path34" class="st1" d="M0,0c0-4.2,0.9-7.6,2.8-10.1c1.9-2.6,4.7-3.8,8.4-3.8c1.2,0,2.1,0,3.1,0.1
						c1,0.1,1.3,0.2,2.3,0.3v24.7c-1,0.5-1.7,1-3.1,1.4c-1.4,0.4-2.6,0.5-4,0.5C3.1,13.1,0,8.8,0,0 M30.7-22.8c-2-0.4-2.6-0.7-4.2-1
						c-1.6-0.3-3.2-0.6-5-0.9c-1.7-0.2-3.5-0.4-5.3-0.6c-1.8-0.2-3.5-0.2-5.1-0.2c-4,0-7.5,0.6-10.6,1.7c-3.1,1.2-5.7,2.8-7.8,5
						c-2.1,2.2-3.8,4.8-4.9,7.8c-1.1,3.1-1.7,6.5-1.7,10.3c0,3.9,0.5,7.4,1.5,10.5c1,3.1,2.4,5.8,4.2,8s4.1,3.9,6.7,5
						c2.6,1.2,5.7,1.7,9.1,1.7c1.9,0,3.3-0.2,4.8-0.5c1.5-0.4,2.3-0.9,4.3-1.6v21.7l14,2.2V-22.8z"/>
				</g>
				<path id="path36" class="st1" d="M365.5,40.5h-13v48h13V40.5z M367.3,101.7c0-2.5-0.8-4.5-2.4-5.9c-1.6-1.4-3.5-2.1-5.7-2.1
					c-2.2,0-4.1,0.7-5.7,2.1c-1.6,1.4-2.4,3.4-2.4,5.9c0,2.5,0.8,4.5,2.4,5.9c1.6,1.4,3.5,2.1,5.7,2.1c2.2,0,4.1-0.7,5.7-2.1
					C366.5,106.2,367.3,104.2,367.3,101.7"/>
				<g id="g38" transform="translate(388.5912,65.4487)">
					<path id="path40" class="st1" d="M0,0c0-7.6,3.1-11.4,9.2-11.4c1.4,0,2.5,0.2,3.8,0.5c1.2,0.4,1.9,0.8,2.9,1.3v21.7
						c-1,0.1-1.3,0.2-2.2,0.3s-1.9,0.1-3.1,0.1c-3.6,0-6.2-1.2-8-3.6C0.8,6.7,0,3.6,0,0 M28.9-19.5c0-7.8-1.5-13.7-5.5-17.5
						c-4-3.8-9.9-5.7-18.2-5.7c-2.9,0-5.7,0.3-8.6,0.8c-2.9,0.5-5.6,1.2-8.1,2.1l2.4,11.4c2.1-0.9,4.4-1.5,6.7-2
						c2.3-0.5,5-0.7,8-0.7c3.9,0,6.5,0.9,8.1,2.6c1.6,1.7,2.3,3.9,2.3,6.6v1.7c-2-0.7-2.8-1.2-4.4-1.5c-1.6-0.3-3.2-0.5-5-0.5
						c-6.6,0-11.7,2-15.2,5.9c-3.5,3.9-5.3,9.4-5.3,16.5c0,3.5,0.6,6.7,1.7,9.6c1.1,2.9,2.7,5.4,4.8,7.4c2.1,2.1,4.7,3.7,7.7,4.8
						c3,1.1,6.5,1.7,10.3,1.7c1.6,0,3.3-0.1,5.1-0.2c1.7-0.2,3.4-0.4,5.2-0.6c1.7-0.2,2.9-0.5,4.4-0.9c1.6-0.3,2.7-0.7,3.7-1.1
						L28.9-19.5z"/>
				</g>
				<g id="g42" transform="translate(452.5,36.5)">
					<path id="path44" class="st1" d="M0,0v43h-8v5h8v3.5c0,9.2,5.1,14.8,13.1,14.8c3.3,0,6.1-0.7,9.1-3.3l-2.4-3.7
						c-1.6,1.5-3.8,2.5-6.4,2.5C8,61.6,5,57.9,5,51.5V48h10v-5H5V0H0z"/>
				</g>
				<g id="g46" transform="translate(507.5,45.4944)">
					<path id="path48" class="st1" d="M0,0v10.4C-4,14.8-8.7,17-14.4,17c-7.8,0-13-5-13-11.8c0-6.7,5.2-11.7,13-11.7
						C-8.7-6.5-4-4.3,0,0 M0-9v5.3c-5-4.6-9.6-6.8-16.1-6.8c-8.2,0-16.6,5.6-16.6,15.8c0,10.3,8.4,15.7,16.6,15.7
						C-9.5,21-5,18.9,0,14.3v9.6C0,31-5.7,34.8-12.7,34.8c-6,0-10.6-2.1-15-7l-2.9,3.5c4.9,5.3,10.4,8,18.2,8
						C-2.6,39.3,5,34.7,5,24.1V-9H0z"/>
				</g>
				<path id="path50" class="st1" d="M528.5,102.5h5v-66h-5V102.5z"/>
				<g id="g52" transform="translate(546.9153,59.9499)">
					<path id="path54" class="st1" d="M0,0c0,13.9,9,24.9,23,24.9c8.3,0,13-3.2,16.8-8.1l-3.5-3.1c-3.4,4.7-7.8,6.6-13,6.6
						C12.2,20.3,5.4,11.4,5.4,0s6.8-20.4,17.9-20.4c5.2,0,9.5,2,13,6.7l3.5-3.1C36-21.7,31.3-25,23-25C9-25,0-13.9,0,0"/>
				</g>
				<g id="g56" transform="translate(635.6187,59.9499)">
					<path id="path58" class="st1" d="M0,0c0,10.5-6.2,20.3-17.4,20.3c-11,0-17.3-9.7-17.3-20.3c0-10.6,6.3-20.4,17.3-20.4
						C-6.2-20.4,0-10.6,0,0 M-40.1,0c0,13.9,8.9,24.9,22.7,24.9c14.1,0,22.9-11,22.9-24.9c0-13.9-8.9-25-22.9-25
						C-31.3-25-40.1-13.9-40.1,0"/>
				</g>
				<g id="g60" transform="translate(86.4701,17.5721)">
					<path id="path62" class="st1" d="M0,0c0.7,3,1.4,5.9,2,8.7c0.2,1,0.5,2.1,0.8,3.1c1.6,6.5,2.5,7.2,9.4,7.3
						C12.9,11.1,6.7,1.1,0,0 M-9.7,5.2c2.1,7.6,5.3,11,11.2,11.4C0.5,10.7-5,5.2-9.7,5.2 M-16.4,17.5c-6,1.7-11.5,4.3-17.2,7.8
						c0.8,0.2,1.2,0.3,1.7,0.3C-16.9,26.3-2,27,13,27.6c4.2,0.2,4.9-0.3,6.5-4.7c-4.8-1-9.5-2.1-14.3-3.1c-4-0.8-8-1.5-11.9-2.5
						C-10,16.4-13.2,16.6-16.4,17.5 M-39.8,44.5c15.9-2.1,31.7-4.3,47.6-6.2c5.1-0.6,6.5-4.1,8.5-7.9c-2.7-0.1-5.1-0.3-7.5-0.4
						c-9.1-0.3-18.2-0.6-27.3-1c-3.7-0.2-7.1,0.5-10.4,2.1c-7.4,3.6-14,8.4-19.9,14.5C-45.9,45.2-42.8,44.9-39.8,44.5 M-66.5,68.1
						c0.1,0.1,0.2,0.3,0.4,0.4c11.4-3,22.7-6,34.1-9c10.8-2.8,21.5-5.9,32.4-8.4c5.8-1.4,8.3-5.4,10.6-10.5
						C4.6,41.4-1.4,42.2-7.3,43c-9,1.2-18.1,2.3-27.1,3.5c-2.1,0.3-4.3,0.8-6.1,1.7c-9,4.5-16.9,10.4-24,17.5
						C-65.2,66.4-65.8,67.3-66.5,68.1 M14.4,17.9c0,1.3,0.2,2.6,1.8,2.7c1.7,0.1,3.7,1.7,5.2-0.7c1-1.7,2-3.4,3.1-5.1
						c4.6,8.3,7.2,17.9,7.2,28.1c0,32.4-26.2,58.6-58.6,58.6c-32.4,0-58.6-26.2-58.6-58.6c0-32.4,26.2-58.6,58.6-58.6
						c16,0,30.5,6.4,41,16.8c0,0.6,0,1.1,0,1.7C14.1,7.8,14.3,12.8,14.4,17.9"/>
				</g>
			</g>
		</g>
	</g>
</g>
</svg>
