<?xml version="1.0" encoding="utf-8"?>
<!-- Generator: Adobe Illustrator 16.0.0, SVG Export Plug-In . SVG Version: 6.00 Build 0)  -->
<!DOCTYPE svg PUBLIC "-//W3C//DTD SVG 1.1//EN" "http://www.w3.org/Graphics/SVG/1.1/DTD/svg11.dtd">
<svg version="1.1" id="Layer_1" xmlns="http://www.w3.org/2000/svg" xmlns:xlink="http://www.w3.org/1999/xlink" x="0px" y="0px"
	 width="73.919px" height="69.354px" viewBox="0 0 73.919 69.354" enable-background="new 0 0 73.919 69.354" xml:space="preserve">
<path fill="#BEC0C2" d="M37.16,10.76c-13.306-0.11-24.183,10.588-24.293,23.895c-0.047,5.599,1.826,10.76,4.995,14.877
	c1.239-1.22,2.094-2.062,2.235-2.199c0.638-0.626,2.323-0.611,2.323-0.611s1.653-1.626,3.352-3.298
	c1.699-1.673-1.179-4.597-1.179-4.597l-4.02-4.086c15.716-15.463,27.195-10.676,27.195-10.676s4.598,11.557-11.117,27.019
	l-4.02-4.086c0,0-2.877-2.923-4.575-1.254c-1.701,1.674-3.354,3.299-3.354,3.299s-0.011,1.686-0.65,2.312
	c-0.143,0.141-1.004,0.989-2.253,2.218c4.091,3.318,9.286,5.332,14.963,5.379c13.308,0.109,24.184-10.588,24.293-23.896
	C61.165,21.747,50.467,10.871,37.16,10.76z"/>
</svg>
