<?xml version="1.0" encoding="utf-8"?>
<!-- Generator: Adobe Illustrator 19.2.1, SVG Export Plug-In . SVG Version: 6.00 Build 0)  -->
<svg version="1.1"
	 id="svg2" xmlns:cc="http://creativecommons.org/ns#" xmlns:dc="http://purl.org/dc/elements/1.1/" xmlns:rdf="http://www.w3.org/1999/02/22-rdf-syntax-ns#" xmlns:svg="http://www.w3.org/2000/svg"
	 xmlns="http://www.w3.org/2000/svg" xmlns:xlink="http://www.w3.org/1999/xlink" x="0px" y="0px" viewBox="0 0 76.1 76.1"
	 style="enable-background:new 0 0 76.1 76.1;" xml:space="preserve">
<style type="text/css">
	.st0{clip-path:url(#SVGID_2_);}
	.st1{fill:#999999;}
</style>
<g id="g10" transform="matrix(1.3333333,0,0,-1.3333333,0,76.129867)">
	<g id="g12">
		<g>
			<defs>
				<rect id="SVGID_1_" x="-5.5" y="-6.5" width="68" height="70"/>
			</defs>
			<clipPath id="SVGID_2_">
				<use xlink:href="#SVGID_1_"  style="overflow:visible;"/>
			</clipPath>
			<g id="g14" class="st0">
				<g id="g20" transform="translate(41.64,7.7553)">
					<path id="path22" class="st1" d="M-1.4,1.7C-1.1,3-0.8,4.3-0.5,5.6C-0.4,6-0.3,6.5-0.2,7c0.7,2.9,1.1,3.2,4.1,3.3
						C4.2,6.6,1.5,2.2-1.4,1.7 M-5.6,4c0.9,3.4,2.3,4.9,4.9,5.1C-1.2,6.4-3.6,4-5.6,4 M-8.5,9.5c-2.6,0.8-5,1.9-7.5,3.5
						c0.4,0.1,0.5,0.1,0.7,0.2c6.5,0.3,13,0.6,19.5,0.9c1.8,0.1,2.1-0.2,2.8-2.1C5,11.5,2.9,11,0.9,10.5c-1.7-0.4-3.5-0.7-5.2-1.1
						C-5.7,9-7.1,9.1-8.5,9.5 M-18.7,21.6c6.9-0.9,13.8-1.9,20.7-2.8c2.2-0.3,2.8-1.8,3.7-3.5c-1.2-0.1-2.2-0.1-3.3-0.2
						c-4-0.2-7.9-0.3-11.9-0.5c-1.6-0.1-3.1,0.2-4.5,0.9c-3.2,1.6-6.1,3.8-8.6,6.5C-21.3,21.9-20,21.8-18.7,21.6 M-30.3,32.1
						c0.1,0.1,0.1,0.1,0.2,0.2c4.9-1.3,9.9-2.7,14.8-4c4.7-1.3,9.4-2.6,14.1-3.8c2.5-0.6,3.6-2.4,4.6-4.7c-2.7,0.4-5.3,0.7-7.9,1
						c-3.9,0.5-7.8,1-11.8,1.6c-0.9,0.1-1.9,0.4-2.7,0.8c-3.9,2-7.4,4.7-10.4,7.8C-29.8,31.4-30,31.8-30.3,32.1 M4.9,9.7
						c0,0.6,0.1,1.2,0.8,1.2c0.8,0.1,1.6,0.8,2.2-0.3C8.3,9.8,8.8,9,9.2,8.3c2,3.7,3.1,8,3.1,12.6C12.3,35.3,0.9,47-13.1,47
						s-25.5-11.7-25.5-26.2S-27.2-5.4-13.1-5.4c6.9,0,13.2,2.9,17.8,7.5c0,0.3,0,0.5,0,0.8C4.8,5.2,4.8,7.4,4.9,9.7"/>
				</g>
			</g>
		</g>
	</g>
</g>
</svg>
