<?xml version="1.0" encoding="UTF-8" standalone="no"?>
<svg
   xmlns:dc="http://purl.org/dc/elements/1.1/"
   xmlns:cc="http://creativecommons.org/ns#"
   xmlns:rdf="http://www.w3.org/1999/02/22-rdf-syntax-ns#"
   xmlns:svg="http://www.w3.org/2000/svg"
   xmlns="http://www.w3.org/2000/svg"
   viewBox="0 0 856 158.66667"
   height="158.66667"
   width="856"
   xml:space="preserve"
   id="svg2"
   version="1.1"><metadata
     id="metadata8"><rdf:RDF><cc:Work
         rdf:about=""><dc:format>image/svg+xml</dc:format><dc:type
           rdf:resource="http://purl.org/dc/dcmitype/StillImage" /></cc:Work></rdf:RDF></metadata><defs
     id="defs6"><clipPath
       id="clipPath18"
       clipPathUnits="userSpaceOnUse"><path
         id="path16"
         d="M 0,119 H 642 V 0 H 0 Z" /></clipPath></defs><g
     transform="matrix(1.3333333,0,0,-1.3333333,0,158.66667)"
     id="g10"><g
       id="g12"><g
         clip-path="url(#clipPath18)"
         id="g14"><g
           transform="translate(180.1682,49.675)"
           id="g20"><path
             id="path22"
             style="fill:#ffffff;fill-opacity:1;fill-rule:nonzero;stroke:none"
             d="m 0,0 c 2.492,0 4.254,0.242 5.288,0.73 1.033,0.486 1.549,1.426 1.549,2.827 0,1.093 -0.667,2.051 -2.006,2.871 -1.336,0.82 -3.372,1.746 -6.107,2.781 -2.13,0.788 -4.057,1.609 -5.789,2.461 -1.734,0.849 -3.21,1.87 -4.424,3.055 -1.215,1.185 -2.156,2.598 -2.826,4.24 -0.669,1.64 -1.003,3.615 -1.003,5.926 0,4.497 1.673,8.054 5.015,10.667 3.343,2.613 7.931,3.921 13.768,3.921 2.915,0 5.713,-0.259 8.388,-0.775 2.674,-0.517 4.801,-1.08 6.382,-1.687 L 15.863,26.44 c -1.579,0.549 -3.296,1.034 -5.15,1.46 -1.854,0.424 -3.936,0.638 -6.246,0.638 -4.255,0 -6.382,-1.185 -6.382,-3.555 0,-0.547 0.092,-1.035 0.275,-1.459 0.182,-0.428 0.545,-0.837 1.093,-1.232 0.547,-0.395 1.29,-0.822 2.234,-1.281 0.942,-0.46 2.142,-0.967 3.601,-1.517 2.978,-1.104 5.439,-2.191 7.384,-3.263 1.946,-1.072 3.48,-2.231 4.606,-3.473 1.123,-1.244 1.914,-2.624 2.371,-4.141 0.456,-1.516 0.683,-3.274 0.683,-5.274 0,-4.733 -1.778,-8.311 -5.333,-10.736 -3.556,-2.425 -8.588,-3.639 -15.09,-3.639 -4.256,0 -7.795,0.364 -10.622,1.093 -2.827,0.73 -4.788,1.337 -5.882,1.824 l 2.28,11.033 C -12.005,2.006 -9.635,1.29 -7.203,0.775 -4.773,0.257 -2.372,0 0,0" /></g><g
           transform="translate(251.4652,88.5)"
           id="g24"><path
             id="path26"
             style="fill:#ffffff;fill-opacity:1;fill-rule:nonzero;stroke:none"
             d="m 0,0 c -2.742,-9 -5.604,-18.212 -8.591,-26.296 -2.986,-8.085 -6.249,-16.082 -9.78,-23.68 -1.28,-2.734 -2.559,-5.137 -3.836,-7.051 -1.279,-1.916 -2.68,-3.534 -4.202,-4.781 -1.522,-1.245 -3.241,-2.177 -5.157,-2.755 -1.918,-0.576 -4.155,-0.875 -6.71,-0.875 -2.132,0 -4.096,0.193 -5.893,0.587 -1.794,0.396 -3.27,0.834 -4.427,1.32 l 2.37,10.848 c 1.4,-0.485 2.646,-0.82 3.741,-1.003 1.093,-0.183 2.251,-0.274 3.468,-0.274 2.432,0 4.3,0.653 5.609,1.961 1.306,1.306 2.417,3.115 3.329,5.424 -3.101,6.077 -6.204,13.213 -9.305,20.779 C -42.485,-18.227 -45.405,-10 -48.141,0 h 14.406 c 0.611,-3 1.329,-5.25 2.154,-8.016 0.824,-2.765 1.694,-5.717 2.61,-8.542 0.917,-2.827 1.846,-5.656 2.792,-8.33 0.945,-2.675 1.847,-5.146 2.702,-7.333 0.793,2.187 1.617,4.6 2.472,7.275 0.855,2.673 1.695,5.415 2.517,8.242 0.823,2.825 1.618,5.928 2.381,8.693 0.762,2.766 1.449,5.011 2.06,8.011 z" /></g><g
           transform="translate(270.6128,49.675)"
           id="g28"><path
             id="path30"
             style="fill:#ffffff;fill-opacity:1;fill-rule:nonzero;stroke:none"
             d="m 0,0 c 2.492,0 4.254,0.242 5.288,0.73 1.034,0.486 1.551,1.426 1.551,2.827 0,1.093 -0.669,2.051 -2.008,2.871 -1.336,0.82 -3.372,1.746 -6.107,2.781 -2.129,0.788 -4.057,1.609 -5.789,2.461 -1.734,0.849 -3.21,1.87 -4.424,3.055 -1.215,1.185 -2.156,2.598 -2.826,4.24 -0.669,1.64 -1.003,3.615 -1.003,5.926 0,4.497 1.673,8.054 5.015,10.667 3.343,2.613 7.931,3.921 13.768,3.921 2.916,0 5.713,-0.259 8.388,-0.775 2.674,-0.517 4.801,-1.08 6.382,-1.687 L 15.864,26.44 c -1.58,0.549 -3.297,1.034 -5.151,1.46 -1.854,0.424 -3.936,0.638 -6.247,0.638 -4.254,0 -6.381,-1.185 -6.381,-3.555 0,-0.547 0.092,-1.035 0.275,-1.459 0.182,-0.428 0.545,-0.837 1.093,-1.232 C 0,21.897 0.744,21.47 1.687,21.011 c 0.942,-0.46 2.142,-0.967 3.601,-1.517 2.978,-1.104 5.439,-2.191 7.385,-3.263 1.945,-1.072 3.479,-2.231 4.605,-3.473 1.123,-1.244 1.914,-2.624 2.371,-4.141 0.456,-1.516 0.684,-3.274 0.684,-5.274 0,-4.733 -1.779,-8.311 -5.334,-10.736 -3.556,-2.425 -8.588,-3.639 -15.09,-3.639 -4.256,0 -7.795,0.364 -10.622,1.093 -2.827,0.73 -4.787,1.337 -5.882,1.824 l 2.28,11.033 C -12.005,2.006 -9.635,1.29 -7.203,0.775 -4.773,0.257 -2.372,0 0,0" /></g><g
           transform="translate(310.8208,64.2638)"
           id="g32"><path
             id="path34"
             style="fill:#ffffff;fill-opacity:1;fill-rule:nonzero;stroke:none"
             d="m 0,0 c 0,-4.195 0.942,-7.567 2.826,-10.121 1.883,-2.553 4.678,-3.83 8.388,-3.83 1.215,0 2.11,0.045 3.143,0.137 1.033,0.091 1.322,0.196 2.322,0.319 v 24.708 c -1,0.549 -1.729,1.004 -3.098,1.368 -1.367,0.366 -2.634,0.547 -4.033,0.547 C 3.105,13.128 0,8.752 0,0 m 30.679,-22.794 c -2,-0.366 -2.59,-0.716 -4.17,-1.049 -1.583,-0.334 -3.228,-0.622 -4.958,-0.866 -1.732,-0.241 -3.49,-0.439 -5.283,-0.593 -1.793,-0.152 -3.507,-0.228 -5.149,-0.228 -3.95,0 -7.474,0.58 -10.575,1.732 -3.098,1.154 -5.712,2.813 -7.841,4.97 -2.128,2.156 -3.753,4.771 -4.876,7.841 -1.126,3.068 -1.688,6.518 -1.688,10.349 0,3.888 0.487,7.398 1.459,10.53 0.973,3.131 2.372,5.79 4.195,7.978 1.823,2.188 4.059,3.86 6.701,5.015 2.645,1.153 5.667,1.734 9.075,1.734 1.88,0 3.338,-0.185 4.828,-0.549 1.487,-0.365 2.282,-0.883 4.282,-1.55 v 21.7 l 14,2.187 z" /></g><path
           id="path36"
           style="fill:#ffffff;fill-opacity:1;fill-rule:nonzero;stroke:none"
           d="m 365.5,40.5 h -13 v 48 h 13 z m 1.848,61.236 c 0,-2.492 -0.806,-4.453 -2.417,-5.88 -1.611,-1.43 -3.51,-2.144 -5.697,-2.144 -2.19,0 -4.091,0.714 -5.7,2.144 -1.611,1.427 -2.415,3.388 -2.415,5.88 0,2.493 0.804,4.452 2.415,5.882 1.609,1.427 3.51,2.142 5.7,2.142 2.187,0 4.086,-0.715 5.697,-2.142 1.611,-1.43 2.417,-3.389 2.417,-5.882" /><g
           transform="translate(388.5912,65.4487)"
           id="g38"><path
             id="path40"
             style="fill:#ffffff;fill-opacity:1;fill-rule:nonzero;stroke:none"
             d="m 0,0 c 0,-7.6 3.067,-11.399 9.207,-11.399 1.398,0 2.546,0.184 3.762,0.548 1.216,0.366 1.94,0.79 2.94,1.278 v 21.699 c -1,0.121 -1.3,0.228 -2.211,0.319 -0.911,0.091 -1.897,0.138 -3.111,0.138 -3.588,0 -6.221,-1.187 -7.984,-3.555 C 0.84,6.656 0,3.647 0,0 m 28.909,-19.511 c 0,-7.842 -1.539,-13.661 -5.518,-17.461 -3.984,-3.798 -9.911,-5.699 -18.239,-5.699 -2.918,0 -5.722,0.26 -8.639,0.776 -2.918,0.516 -5.566,1.201 -8.059,2.051 l 2.4,11.398 c 2.125,-0.852 4.373,-1.52 6.715,-2.006 2.339,-0.487 5.006,-0.73 7.985,-0.73 3.888,0 6.483,0.852 8.094,2.553 1.611,1.702 2.261,3.89 2.261,6.565 v 1.732 c -2,-0.67 -2.803,-1.172 -4.353,-1.505 -1.551,-0.333 -3.156,-0.502 -4.981,-0.502 -6.627,0 -11.662,1.962 -15.187,5.882 -3.526,3.921 -5.269,9.404 -5.269,16.457 0,3.524 0.559,6.731 1.652,9.618 1.094,2.887 2.694,5.364 4.792,7.432 2.097,2.065 4.668,3.661 7.707,4.787 3.039,1.123 6.475,1.687 10.304,1.687 1.64,0 3.33,-0.078 5.061,-0.228 1.732,-0.153 3.449,-0.352 5.153,-0.593 1.701,-0.244 2.875,-0.533 4.424,-0.866 1.551,-0.335 2.697,-0.685 3.697,-1.051 z" /></g><g
           transform="translate(452.5,36.5)"
           id="g42"><path
             id="path44"
             style="fill:#ffffff;fill-opacity:1;fill-rule:nonzero;stroke:none"
             d="m 0,0 v 43 h -8 v 5 h 8 v 3.476 c 0,9.245 5.117,14.752 13.083,14.752 3.342,0 6.097,-0.688 9.146,-3.345 L 19.82,59.147 C 18.248,60.622 16,61.605 13.442,61.605 8.035,61.605 5,57.869 5,51.476 V 48 H 15 V 43 H 5 V 0 Z" /></g><g
           transform="translate(507.5,45.4944)"
           id="g46"><path
             id="path48"
             style="fill:#ffffff;fill-opacity:1;fill-rule:nonzero;stroke:none"
             d="m 0,0 v 10.423 c -4,4.426 -8.665,6.59 -14.369,6.59 -7.768,0 -12.986,-5.016 -12.986,-11.801 0,-6.687 5.221,-11.702 12.989,-11.702 C -8.662,-6.49 -4,-4.326 0,0 m 0,-8.994 v 5.258 c -5,-4.623 -9.55,-6.787 -16.139,-6.787 -8.162,0 -16.623,5.606 -16.623,15.833 0,10.326 8.366,15.735 16.625,15.735 6.59,0 11.137,-2.164 16.137,-6.786 v 9.638 c 0,7.08 -5.714,10.914 -12.697,10.914 -5.998,0 -10.626,-2.065 -14.952,-6.981 l -2.855,3.541 c 4.917,5.31 10.377,7.965 18.244,7.965 C -2.623,39.336 5,34.714 5,24.094 V -8.994 Z" /></g><path
           id="path50"
           style="fill:#ffffff;fill-opacity:1;fill-rule:nonzero;stroke:none"
           d="m 528.5,102.5 h 5 v -66 h -5 z" /><g
           transform="translate(546.9153,59.9499)"
           id="g52"><path
             id="path54"
             style="fill:#ffffff;fill-opacity:1;fill-rule:nonzero;stroke:none"
             d="m 0,0 c 0,13.867 9.048,24.88 23.011,24.88 8.261,0 12.981,-3.245 16.816,-8.064 l -3.54,-3.146 c -3.441,4.72 -7.768,6.588 -12.98,6.588 C 12.194,20.258 5.409,11.407 5.409,0 c 0,-11.407 6.785,-20.356 17.898,-20.356 5.212,0 9.539,1.967 12.98,6.687 l 3.54,-3.147 C 35.992,-21.733 31.272,-24.978 23.011,-24.978 9.048,-24.978 0,-13.865 0,0" /></g><g
           transform="translate(635.6187,59.9499)"
           id="g56"><path
             id="path58"
             style="fill:#ffffff;fill-opacity:1;fill-rule:nonzero;stroke:none"
             d="m 0,0 c 0,10.523 -6.196,20.258 -17.406,20.258 -11.014,0 -17.308,-9.735 -17.308,-20.258 0,-10.62 6.294,-20.356 17.308,-20.356 C -6.196,-20.356 0,-10.62 0,0 m -40.123,0 c 0,13.867 8.851,24.88 22.717,24.88 14.062,0 22.913,-11.013 22.913,-24.88 0,-13.865 -8.851,-24.978 -22.913,-24.978 -13.866,0 -22.717,11.113 -22.717,24.978" /></g><g
           transform="translate(86.4701,17.5721)"
           id="g60"><path
             id="path62"
             style="fill:#ffffff;fill-opacity:1;fill-rule:nonzero;stroke:none"
             d="m 0,0 c 0.697,2.987 1.362,5.856 2.037,8.723 0.245,1.042 0.514,2.077 0.768,3.116 1.591,6.495 2.456,7.168 9.368,7.287 C 12.937,11.056 6.746,1.078 0,0 m -9.703,5.173 c 2.059,7.61 5.32,10.973 11.239,11.431 C 0.453,10.671 -5.011,5.187 -9.703,5.173 m -6.667,12.325 c -5.961,1.725 -11.544,4.27 -17.168,7.846 0.848,0.179 1.248,0.323 1.653,0.341 14.967,0.657 29.934,1.314 44.902,1.943 4.249,0.178 4.938,-0.345 6.486,-4.712 C 14.721,21.881 9.967,20.842 5.208,19.826 1.251,18.981 -2.746,18.3 -6.659,17.289 c -3.306,-0.854 -6.499,-0.72 -9.711,0.209 M -39.816,44.49 c 15.852,-2.076 31.684,-4.329 47.565,-6.161 5.065,-0.584 6.515,-4.073 8.452,-7.915 -2.654,-0.141 -5.067,-0.302 -7.483,-0.393 -9.104,-0.343 -18.212,-0.599 -27.312,-1.024 -3.698,-0.173 -7.135,0.523 -10.44,2.105 -7.444,3.562 -13.968,8.42 -19.879,14.477 3.033,-0.361 6.069,-0.693 9.097,-1.089 M -66.52,68.119 c 0.117,0.126 0.235,0.251 0.352,0.377 11.366,-2.987 22.733,-5.973 34.099,-8.961 10.785,-2.835 21.52,-5.887 32.376,-8.421 5.794,-1.353 8.292,-5.389 10.597,-10.469 -6.281,0.798 -12.257,1.553 -18.232,2.318 -9.024,1.155 -18.055,2.262 -27.064,3.519 -2.086,0.29 -4.255,0.791 -6.117,1.728 -8.95,4.499 -16.909,10.411 -23.99,17.496 -0.738,0.74 -1.35,1.606 -2.021,2.413 m 80.943,-50.24 c 0.027,1.345 0.212,2.586 1.786,2.701 1.737,0.127 3.732,1.713 5.154,-0.685 1.014,-1.709 2.038,-3.412 3.06,-5.117 4.557,8.334 7.151,17.896 7.151,28.065 0,32.356 -26.229,58.585 -58.585,58.585 -32.355,0 -58.585,-26.229 -58.585,-58.585 0,-32.355 26.23,-58.585 58.585,-58.585 15.977,0 30.452,6.403 41.021,16.773 0.004,0.567 -10e-4,1.135 0.011,1.702 0.111,5.049 0.302,10.096 0.402,15.146" /></g></g></g></g></svg>