<?xml version="1.0" encoding="utf-8"?>
<!-- Generator: Adobe Illustrator 19.2.1, SVG Export Plug-In . SVG Version: 6.00 Build 0)  -->
<svg version="1.1"
	 id="svg2" xmlns:cc="http://creativecommons.org/ns#" xmlns:dc="http://purl.org/dc/elements/1.1/" xmlns:rdf="http://www.w3.org/1999/02/22-rdf-syntax-ns#" xmlns:svg="http://www.w3.org/2000/svg"
	 xmlns="http://www.w3.org/2000/svg" xmlns:xlink="http://www.w3.org/1999/xlink" x="0px" y="0px" viewBox="0 0 696 163"
	 style="enable-background:new 0 0 696 163;" xml:space="preserve">
<style type="text/css">
	.st0{clip-path:url(#SVGID_2_);}
	.st1{fill:#FFFFFF;}
</style>
<g id="g10" transform="matrix(1.3333333,0,0,-1.3333333,0,158.66667)">
	<g id="g12">
		<g>
			<g>
				<g>
					<defs>
						<rect id="SVGID_1_" x="-404.3" y="-60.9" width="1294.5" height="249"/>
					</defs>
					<clipPath id="SVGID_2_">
						<use xlink:href="#SVGID_1_"  style="overflow:visible;"/>
					</clipPath>
					<g id="g14" class="st0">
						<g>
							<g id="g20" transform="translate(180.1682,49.675)">
								<path id="path22" class="st1" d="M-49.3,2.2c2.1,0,3.7,0.2,4.5,0.6c0.8,0.4,1.3,1.2,1.3,2.4c0,0.9-0.6,1.8-1.7,2.5
									S-48,9.1-50.4,10c-1.8,0.7-3.5,1.4-4.9,2.1c-1.4,0.7-2.7,1.6-3.7,2.6s-1.9,2.2-2.4,3.6c-0.6,1.4-0.9,3.1-0.9,5
									c0,3.8,1.4,6.9,4.3,9.1s6.7,3.3,11.7,3.3c2.5,0,4.8-0.3,7.1-0.7s4.1-0.9,5.4-1.4l-2-9c-1.3,0.4-2.7,0.9-4.4,1.3
									c-1.6,0.3-3.3,0.5-5.3,0.5c-3.7,0-5.4-1-5.4-3.1c0-0.4,0.1-0.9,0.3-1.3c0.2-0.3,0.4-0.7,0.9-1c0.4-0.3,1-0.6,1.9-1
									c0.8-0.4,1.8-0.9,3.1-1.3c2.5-0.9,4.5-1.8,6.2-2.8c1.6-0.9,3-1.9,3.9-3c0.9-1,1.6-2.2,2-3.5c0.4-1.3,0.6-2.8,0.6-4.5
									c0-4-1.5-7.1-4.5-9.1c-3.1-2-7.4-3.1-12.9-3.1c-3.7,0-6.6,0.3-9,0.9c-2.4,0.6-4.1,1.1-5,1.5l2,9.4c2-0.8,4-1.4,6-1.8
									S-51.3,2.2-49.3,2.2"/>
							</g>
							<g id="g24" transform="translate(251.4652,88.5)">
								<path id="path26" class="st1" d="M-59.9-3.6c-2.3-7.7-4.8-15.5-7.3-22.4s-5.3-13.7-8.3-20.2c-1.1-2.3-2.2-4.3-3.2-6
									c-1.1-1.6-2.3-3-3.6-4.1c-1.3-1-2.7-1.9-4.4-2.4c-1.6-0.5-3.6-0.8-5.7-0.8c-1.8,0-3.5,0.2-5,0.5s-2.8,0.7-3.7,1.1l2,9.2
									c1.2-0.4,2.2-0.7,3.1-0.9c0.9-0.2,2-0.3,3-0.3c2,0,3.7,0.6,4.8,1.7c1.1,1.1,2,2.6,2.8,4.6c-2.6,5.2-5.3,11.2-7.9,17.7
									c-2.6,6.5-5.1,13.4-7.5,21.9h12.2c0.5-2.6,1.1-4.5,1.9-6.8c0.7-2.4,1.4-4.8,2.2-7.2c0.8-2.4,1.5-4.8,2.4-7.1
									c0.8-2.3,1.5-4.3,2.3-6.2c0.7,1.9,1.4,3.9,2.1,6.2c0.8,2.3,1.4,4.6,2.1,7c0.7,2.4,1.4,5,2,7.4s1.2,4.3,1.8,6.8L-59.9-3.6z"
									/>
							</g>
							<g id="g28" transform="translate(270.6128,49.675)">
								<path id="path30" class="st1" d="M-62.8,2.2c2.1,0,3.7,0.2,4.5,0.6c0.8,0.4,1.4,1.2,1.4,2.4c0,0.9-0.6,1.8-1.7,2.5
									c-1.2,0.7-2.9,1.5-5.3,2.4c-1.8,0.7-3.5,1.4-4.9,2.1c-1.4,0.7-2.7,1.6-3.7,2.6s-1.9,2.2-2.4,3.6c-0.6,1.4-0.9,3.1-0.9,5
									c0,3.8,1.4,6.9,4.3,9.1s6.7,3.3,11.7,3.3c2.5,0,4.8-0.3,7.1-0.7s4.1-0.9,5.4-1.4l-2-9c-1.4,0.4-2.8,0.9-4.4,1.3
									c-1.6,0.3-3.3,0.5-5.3,0.5c-3.7,0-5.4-1-5.4-3.1c0-0.4,0.1-0.9,0.3-1.3c0.2-0.3,0.4-0.7,0.9-1c0.4-0.3,1-0.6,1.9-1
									c0.8-0.4,1.8-0.9,3.1-1.3c2.6-0.9,4.6-1.9,6.3-2.8c1.6-0.9,3-1.9,3.9-3c0.9-1,1.6-2.2,2-3.5s0.6-2.8,0.6-4.5
									c0-4-1.5-7.1-4.5-9.1c-3.1-2-7.4-3.1-12.9-3.1c-3.7,0-6.6,0.3-9,0.9c-2.4,0.6-4.1,1.1-5,1.5l2,9.4c2-0.8,4-1.4,6-1.8
									S-64.8,2.2-62.8,2.2"/>
							</g>
							<g id="g32" transform="translate(310.8208,64.2638)">
								<path id="path34" class="st1" d="M-68.8,0c0-3.6,0.8-6.5,2.4-8.6c1.6-2.2,4-3.2,7.1-3.2c1,0,1.8,0,2.6,0.1
									c0.9,0.1,1.1,0.2,2,0.3v21c-0.9,0.4-1.4,0.9-2.6,1.2c-1.2,0.3-2.2,0.4-3.4,0.4C-66.1,11.1-68.8,7.5-68.8,0 M-42.7-19.4
									c-1.7-0.4-2.2-0.6-3.5-0.9c-1.3-0.3-2.7-0.5-4.3-0.8c-1.4-0.2-3-0.3-4.5-0.5s-3-0.2-4.3-0.2c-3.4,0-6.4,0.5-9,1.4
									c-2.6,1-4.8,2.4-6.6,4.3c-1.8,1.9-3.2,4.1-4.2,6.6C-80-6.9-80.5-4-80.5-0.7s0.4,6.3,1.3,8.9c0.9,2.6,2,4.9,3.6,6.8
									c1.6,1.9,3.5,3.3,5.7,4.3c2.2,1,4.8,1.4,7.7,1.4c1.6,0,2.8-0.2,4.1-0.4c1.3-0.3,2-0.8,3.7-1.4v18.5l11.9,1.9v-58.7H-42.7z"
									/>
							</g>
							<path id="path36" class="st1" d="M288.6,44h-11.1v40.8h11.1V44z M290.1,96.1c0-2.1-0.7-3.8-2-5s-3-1.8-4.8-1.8
								s-3.5,0.6-4.8,1.8c-1.4,1.2-2,2.9-2,5s0.7,3.8,2,5c1.4,1.2,3,1.8,4.8,1.8s3.5-0.6,4.8-1.8S290.1,98.2,290.1,96.1"/>
							<g id="g38" transform="translate(388.5912,65.4487)">
								<path id="path40" class="st1" d="M-80.4-0.2c0-6.5,2.6-9.7,7.8-9.7c1.2,0,2.1,0.2,3.2,0.4c1,0.3,1.6,0.7,2.5,1.1v18.5
									c-0.9,0.1-1.1,0.2-1.9,0.3c-0.8,0.1-1.6,0.1-2.6,0.1c-3.1,0-5.3-1-6.8-3.1C-79.7,5.5-80.4,2.9-80.4-0.2 M-55.8-16.8
									c0-6.6-1.3-11.7-4.7-14.9c-3.4-3.2-8.4-4.8-15.5-4.8c-2.5,0-4.8,0.3-7.3,0.7c-2.5,0.4-4.8,1-6.9,1.8l2,9.7
									c1.8-0.8,3.7-1.3,5.7-1.7c2-0.4,4.3-0.6,6.8-0.6c3.3,0,5.5,0.8,6.9,2.2c1.4,1.4,2,3.3,2,5.6v1.4c-1.7-0.6-2.4-1-3.7-1.3
									c-1.4-0.3-2.7-0.4-4.3-0.4c-5.6,0-10,1.7-12.9,5c-3,3.3-4.5,8-4.5,14c0,3,0.5,5.7,1.4,8.2s2.3,4.6,4.1,6.3
									c1.8,1.8,4,3.1,6.6,4.1c2.6,0.9,5.5,1.4,8.8,1.4c1.4,0,2.8-0.1,4.3-0.2c1.4-0.2,2.9-0.3,4.4-0.5c1.4-0.2,2.5-0.4,3.7-0.8
									c1.4-0.3,2.3-0.6,3.1-0.9L-55.8-16.8z"/>
							</g>
							<g id="g42" transform="translate(452.5,36.5)">
								<path id="path44" class="st1" d="M-97.6,4.1v36.6h-6.8V45h6.8v3c0,7.8,4.3,12.6,11.1,12.6c2.8,0,5.2-0.6,7.7-2.8l-2-3.1
									c-1.4,1.3-3.2,2.1-5.4,2.1c-4.6-0.2-7.1-3.3-7.1-8.8v-3h8.5v-4.3h-8.5V4.1H-97.6z"/>
							</g>
							<g id="g46" transform="translate(507.5,45.4944)">
								<path id="path48" class="st1" d="M-105.8,2.8v8.8c-3.4,3.7-7.4,5.6-12.2,5.6c-6.6,0-11.1-4.3-11.1-10s4.4-10,11.1-10
									C-113.2-2.7-109.2-0.9-105.8,2.8 M-105.8-4.9v4.5c-4.3-3.9-8.2-5.8-13.7-5.8c-7,0-14.1,4.8-14.1,13.4
									c0,8.8,7.1,13.4,14.1,13.4c5.6,0,9.4-1.8,13.7-5.7v8.2c0,6-4.8,9.3-10.8,9.3c-5.1,0-9-1.8-12.8-6l-2.5,3
									c4.2,4.5,8.8,6.8,15.5,6.8c8.3,0,14.8-3.9,14.8-12.9V-4.9H-105.8z"/>
							</g>
							<path id="path50" class="st1" d="M419.6,96.8h4.3V40.6h-4.3V96.8z"/>
							<g id="g52" transform="translate(546.9153,59.9499)">
								<path id="path54" class="st1" d="M-111.7,0.6c0,11.8,7.7,21.2,19.6,21.2c7.1,0,11.1-2.7,14.3-6.9l-3-2.6
									c-2.9,4-6.6,5.6-11.1,5.6c-9.4,0-15.2-7.6-15.2-17.3s5.8-17.4,15.2-17.4c4.4,0,8.1,1.7,11.1,5.7l3-2.6
									c-3.2-4.2-7.2-7-14.3-7C-104-20.6-111.7-11.2-111.7,0.6"/>
							</g>
							<g id="g56" transform="translate(635.6187,59.9499)">
								<path id="path58" class="st1" d="M-124.9,0.6c0,8.9-5.3,17.3-14.8,17.3c-9.4,0-14.7-8.3-14.7-17.3s5.4-17.4,14.7-17.4
									C-130.2-16.7-124.9-8.4-124.9,0.6 M-159,0.6c0,11.8,7.6,21.2,19.3,21.2c12,0,19.5-9.4,19.5-21.2s-7.6-21.3-19.5-21.3
									C-151.6-20.6-159-11.2-159,0.6"/>
							</g>
						</g>
						<g id="g60" transform="translate(86.4701,17.5721)">
							<path id="path62" class="st1" d="M-13.7,12.3c0.6,2.6,1.2,5,1.7,7.4c0.2,0.9,0.4,1.8,0.7,2.6c1.4,5.5,2.1,6.1,8,6.2
								C-2.8,21.8-8,13.3-13.7,12.3 M-22,16.8c1.8,6.5,4.5,9.4,9.5,9.7C-13.3,21.4-18,16.8-22,16.8 M-27.7,27.2
								c-5.1,1.4-9.8,3.7-14.6,6.6c0.7,0.2,1,0.3,1.4,0.3c12.8,0.6,25.4,1.2,38.2,1.7c3.6,0.2,4.2-0.3,5.5-4
								c-4.1-0.9-8.1-1.8-12.2-2.6c-3.4-0.7-6.8-1.3-10.1-2.1C-22.2,26.3-25,26.5-27.7,27.2 M-47.6,50.2c13.5-1.8,27-3.7,40.5-5.3
								c4.3-0.5,5.5-3.5,7.2-6.7c-2.3-0.1-4.3-0.3-6.4-0.3c-7.7-0.3-15.5-0.5-23.2-0.9c-3.1-0.2-6,0.4-8.8,1.8
								c-6.3,3.1-11.9,7.1-16.9,12.3C-52.8,50.8-50.1,50.5-47.6,50.2 M-70.3,70.3c0.1,0.1,0.2,0.3,0.3,0.3c9.7-2.6,19.3-5.1,29-7.7
								c9.2-2.4,18.3-5,27.6-7.1c4.9-1.2,7.1-4.6,9-8.9c-5.4,0.7-10.5,1.4-15.6,2c-7.7,1-15.4,2-23.1,3c-1.8,0.3-3.7,0.7-5.2,1.4
								c-7.7,3.8-14.4,8.8-20.4,14.9C-69.2,68.8-69.7,69.6-70.3,70.3 M-1.5,27.6c0,1.1,0.2,2.2,1.5,2.3c1.4,0.1,3.1,1.4,4.4-0.6
								C5.3,27.9,6.1,26.4,7,25c3.9,7.1,6.1,15.2,6.1,23.9c0,27.6-22.3,49.8-49.8,49.8s-49.8-22.3-49.8-49.8S-64.2-1-36.6-1
								C-23-1-10.7,4.4-1.7,13.3c0,0.5,0,0.9,0,1.4C-1.7,19-1.6,23.2-1.5,27.6"/>
						</g>
					</g>
				</g>
			</g>
		</g>
	</g>
</g>
</svg>
