<?xml version="1.0" encoding="utf-8"?>
<!-- Generator: Adobe Illustrator 19.2.1, SVG Export Plug-In . SVG Version: 6.00 Build 0)  -->
<svg version="1.1"
	 id="svg2" xmlns:cc="http://creativecommons.org/ns#" xmlns:dc="http://purl.org/dc/elements/1.1/" xmlns:rdf="http://www.w3.org/1999/02/22-rdf-syntax-ns#" xmlns:svg="http://www.w3.org/2000/svg"
	 xmlns="http://www.w3.org/2000/svg" xmlns:xlink="http://www.w3.org/1999/xlink" x="0px" y="0px" viewBox="0 0 696 163"
	 style="enable-background:new 0 0 696 163;" xml:space="preserve">
<style type="text/css">
	.st0{clip-path:url(#SVGID_2_);}
	.st1{fill:#999999;}
</style>
<g id="g10" transform="matrix(1.3333333,0,0,-1.3333333,0,158.66667)">
	<g id="g12">
		<g>
			<g>
				<g>
					<g>
						<defs>
							<rect id="SVGID_1_" x="-620" y="-75.3" width="1726" height="301"/>
						</defs>
						<clipPath id="SVGID_2_">
							<use xlink:href="#SVGID_1_"  style="overflow:visible;"/>
						</clipPath>
						<g id="g14" class="st0">
							<g>
								<g id="g20" transform="translate(180.1682,49.675)">
									<path id="path22" d="M-71,1.7c1.5,0,2.7,0.1,3.3,0.4c0.6,0.3,0.9,0.9,0.9,1.7c0,0.7-0.4,1.3-1.2,1.8s-2,1-3.8,1.7
										c-1.3,0.5-2.5,1-3.6,1.5s-2,1.2-2.7,1.9c-0.7,0.7-1.4,1.6-1.7,2.6c-0.4,1-0.7,2.3-0.7,3.6c0,2.8,1,5,3.1,6.6
										c2.1,1.6,4.9,2.4,8.5,2.4c1.8,0,3.5-0.2,5.2-0.5c1.7-0.3,3-0.7,3.9-1l-1.5-6.6c-0.9,0.3-2,0.7-3.2,0.9
										c-1.2,0.2-2.4,0.4-3.9,0.4c-2.7,0-3.9-0.7-3.9-2.3c0-0.3,0.1-0.7,0.2-0.9c0.1-0.2,0.3-0.5,0.7-0.7c0.3-0.2,0.7-0.4,1.4-0.7
										c0.6-0.3,1.3-0.7,2.3-0.9c1.8-0.7,3.3-1.3,4.5-2c1.2-0.7,2.2-1.4,2.8-2.2c0.7-0.7,1.2-1.6,1.5-2.5c0.3-0.9,0.4-2,0.4-3.3
										c0-2.9-1.1-5.2-3.3-6.6c-2.3-1.5-5.4-2.3-9.4-2.3c-2.7,0-4.8,0.2-6.6,0.7c-1.7,0.4-3,0.8-3.6,1.1l1.5,6.8
										c1.5-0.6,2.9-1,4.4-1.3C-74,1.7-72.5,1.7-71,1.7"/>
								</g>
								<g id="g24" transform="translate(251.4652,88.5)">
									<path id="path26" d="M-98.2-13.1c-1.7-5.6-3.5-11.3-5.3-16.3s-3.9-10-6-14.7c-0.8-1.7-1.6-3.1-2.3-4.4
										c-0.8-1.2-1.7-2.2-2.6-3c-0.9-0.7-2-1.4-3.2-1.7c-1.2-0.4-2.6-0.6-4.1-0.6c-1.3,0-2.5,0.1-3.6,0.4c-1.1,0.2-2,0.5-2.7,0.8
										l1.5,6.7c0.9-0.3,1.6-0.5,2.3-0.7c0.7-0.1,1.5-0.2,2.2-0.2c1.5,0,2.7,0.4,3.5,1.2c0.8,0.8,1.5,1.9,2,3.3
										c-1.9,3.8-3.9,8.2-5.8,12.9s-3.7,9.8-5.5,15.9h8.9c0.4-1.9,0.8-3.3,1.4-4.9c0.5-1.7,1-3.5,1.6-5.2c0.6-1.7,1.1-3.5,1.7-5.2
										c0.6-1.7,1.1-3.1,1.7-4.5c0.5,1.4,1,2.8,1.5,4.5c0.6,1.7,1,3.3,1.5,5.1c0.5,1.7,1,3.6,1.5,5.4s0.9,3.1,1.3,4.9L-98.2-13.1z
										"/>
								</g>
								<g id="g28" transform="translate(270.6128,49.675)">
									<path id="path30" d="M-105.5,1.7c1.5,0,2.7,0.1,3.3,0.4c0.6,0.3,1,0.9,1,1.7c0,0.7-0.4,1.3-1.2,1.8
										c-0.9,0.5-2.1,1.1-3.9,1.7c-1.3,0.5-2.5,1-3.6,1.5c-1,0.5-2,1.2-2.7,1.9c-0.7,0.7-1.4,1.6-1.7,2.6c-0.4,1-0.7,2.3-0.7,3.6
										c0,2.8,1,5,3.1,6.6c2.1,1.6,4.9,2.4,8.5,2.4c1.8,0,3.5-0.2,5.2-0.5c1.7-0.3,3-0.7,3.9-1l-1.5-6.6c-1,0.3-2,0.7-3.2,0.9
										c-1.2,0.2-2.4,0.4-3.9,0.4c-2.7,0-3.9-0.7-3.9-2.3c0-0.3,0.1-0.7,0.2-0.9c0.1-0.2,0.3-0.5,0.7-0.7c0.3-0.2,0.7-0.4,1.4-0.7
										c0.6-0.3,1.3-0.7,2.3-0.9c1.9-0.7,3.3-1.4,4.6-2c1.2-0.7,2.2-1.4,2.8-2.2c0.7-0.7,1.2-1.6,1.5-2.5c0.3-0.9,0.4-2,0.4-3.3
										c0-2.9-1.1-5.2-3.3-6.6c-2.3-1.5-5.4-2.3-9.4-2.3c-2.7,0-4.8,0.2-6.6,0.7c-1.7,0.4-3,0.8-3.6,1.1l1.5,6.8
										c1.5-0.6,2.9-1,4.4-1.3C-108.4,1.8-106.9,1.7-105.5,1.7"/>
								</g>
								<g id="g32" transform="translate(310.8208,64.2638)">
									<path id="path34" d="M-120.8-3.9c0-2.6,0.6-4.7,1.7-6.3c1.2-1.6,2.9-2.3,5.2-2.3c0.7,0,1.3,0,1.9,0.1
										c0.7,0.1,0.8,0.1,1.5,0.2V3.1c-0.7,0.3-1,0.7-1.9,0.9s-1.6,0.3-2.5,0.3C-118.8,4.2-120.8,1.5-120.8-3.9 M-101.8-18
										c-1.2-0.3-1.6-0.4-2.5-0.7s-2-0.4-3.1-0.6c-1-0.1-2.2-0.2-3.3-0.4c-1.1-0.1-2.2-0.1-3.1-0.1c-2.5,0-4.7,0.4-6.6,1
										c-1.9,0.7-3.5,1.7-4.8,3.1c-1.3,1.4-2.3,3-3.1,4.8c-0.7,1.9-1,4-1,6.4s0.3,4.6,0.9,6.5s1.5,3.6,2.6,4.9s2.5,2.4,4.1,3.1
										s3.5,1,5.6,1c1.2,0,2-0.1,3-0.3c0.9-0.2,1.5-0.6,2.7-1v13.5l8.7,1.4V-18C-101.6-18-101.8-18-101.8-18z"/>
								</g>
								<path id="path36" d="M223.9,45.6h-8.1v29.7h8.1V45.6z M225,83.5c0-1.5-0.5-2.8-1.5-3.6c-0.9-0.9-2.2-1.3-3.5-1.3
									c-1.3,0-2.5,0.4-3.5,1.3c-1,0.9-1.5,2.1-1.5,3.6s0.5,2.8,1.5,3.6c1,0.9,2.2,1.3,3.5,1.3c1.3,0,2.5-0.4,3.5-1.3
									C224.5,86.3,225,85.1,225,83.5"/>
								<g id="g38" transform="translate(388.5912,65.4487)">
									<path id="path40" d="M-150.4-4.4c0-4.7,1.9-7.1,5.7-7.1c0.9,0,1.5,0.1,2.3,0.3c0.7,0.2,1.2,0.5,1.8,0.8V3.1
										c-0.7,0.1-0.8,0.1-1.4,0.2c-0.6,0.1-1.2,0.1-1.9,0.1c-2.3,0-3.9-0.7-4.9-2.3C-149.9-0.2-150.4-2.1-150.4-4.4 M-132.5-16.5
										c0-4.8-0.9-8.5-3.4-10.8c-2.5-2.3-6.1-3.5-11.3-3.5c-1.8,0-3.5,0.2-5.3,0.5c-1.8,0.3-3.5,0.7-5,1.3l1.5,7.1
										c1.3-0.6,2.7-0.9,4.1-1.2s3.1-0.4,4.9-0.4c2.4,0,4,0.6,5,1.6c1,1,1.5,2.4,1.5,4.1v1c-1.2-0.4-1.7-0.7-2.7-0.9
										c-1-0.2-2-0.3-3.1-0.3c-4.1,0-7.3,1.2-9.4,3.6c-2.2,2.4-3.3,5.8-3.3,10.2c0,2.2,0.4,4.1,1,6s1.7,3.3,3,4.6
										c1.3,1.3,2.9,2.3,4.8,3c1.9,0.7,4,1,6.4,1c1,0,2-0.1,3.1-0.1c1-0.1,2.1-0.2,3.2-0.4c1-0.1,1.8-0.3,2.7-0.6
										c1-0.2,1.7-0.4,2.3-0.7V-16.5z"/>
								</g>
								<g id="g42" transform="translate(452.5,36.5)">
									<path id="path44" d="M-180.3,6.6v26.6h-4.9v3.1h4.9v2.2c0,5.7,3.1,9.2,8.1,9.2c2,0,3.8-0.4,5.6-2l-1.5-2.3
										c-1,0.9-2.3,1.5-3.9,1.5c-3.3-0.1-5.2-2.4-5.2-6.4v-2.2h6.2v-3.1h-6.2V6.6H-180.3z"/>
								</g>
								<g id="g46" transform="translate(507.5,45.4944)">
									<path id="path48" d="M-201.2,3.2v6.4c-2.5,2.7-5.4,4.1-8.9,4.1c-4.8,0-8.1-3.1-8.1-7.3s3.2-7.3,8.1-7.3
										C-206.6-0.8-203.7,0.5-201.2,3.2 M-201.2-2.4v3.3c-3.1-2.8-6-4.2-10-4.2c-5.1,0-10.3,3.5-10.3,9.8c0,6.4,5.2,9.8,10.3,9.8
										c4.1,0,6.8-1.3,10-4.1v6c0,4.4-3.5,6.8-7.9,6.8c-3.7,0-6.6-1.3-9.3-4.4l-1.8,2.2c3.1,3.3,6.4,4.9,11.3,4.9
										c6,0,10.8-2.8,10.8-9.4V-2.4H-201.2z"/>
								</g>
								<path id="path50" d="M319.3,84h3.1V43.1h-3.1V84z"/>
								<g id="g52" transform="translate(546.9153,59.9499)">
									<path id="path54" d="M-216.3-2.3c0,8.6,5.6,15.4,14.3,15.4c5.2,0,8.1-2,10.4-5l-2.2-1.9c-2.1,2.9-4.8,4.1-8.1,4.1
										c-6.8,0-11.1-5.5-11.1-12.6s4.2-12.7,11.1-12.7c3.2,0,5.9,1.2,8.1,4.1l2.2-1.9c-2.3-3.1-5.2-5.1-10.4-5.1
										C-210.6-17.7-216.3-10.9-216.3-2.3"/>
								</g>
								<g id="g56" transform="translate(635.6187,59.9499)">
									<path id="path58" d="M-250-2.3c0,6.5-3.9,12.6-10.8,12.6c-6.8,0-10.7-6-10.7-12.6s3.9-12.7,10.7-12.7
										C-253.9-14.9-250-8.9-250-2.3 M-274.8-2.3c0,8.6,5.5,15.4,14,15.4c8.7,0,14.2-6.8,14.2-15.4s-5.5-15.5-14.2-15.5
										C-269.4-17.7-274.8-10.9-274.8-2.3"/>
								</g>
							</g>
							<g id="g60" transform="translate(86.4701,17.5721)">
								<path id="path62" class="st1" d="M-19.6,17.7c0.4,1.9,0.9,3.6,1.2,5.4c0.1,0.7,0.3,1.3,0.5,1.9c1,4,1.5,4.4,5.8,4.5
									C-11.7,24.7-15.5,18.5-19.6,17.7 M-25.7,21c1.3,4.7,3.3,6.8,6.9,7.1C-19.3,24.4-22.8,21-25.7,21 M-29.8,28.6
									c-3.7,1-7.1,2.7-10.6,4.8c0.5,0.1,0.7,0.2,1,0.2c9.3,0.4,18.5,0.9,27.8,1.2c2.6,0.1,3.1-0.2,4-2.9c-3-0.7-5.9-1.3-8.9-1.9
									c-2.5-0.5-4.9-0.9-7.4-1.5C-25.8,27.9-27.9,28.1-29.8,28.6 M-44.3,45.3c9.8-1.3,19.7-2.7,29.5-3.9c3.1-0.4,4-2.5,5.2-4.9
									c-1.7-0.1-3.1-0.2-4.7-0.2c-5.6-0.2-11.3-0.4-16.9-0.7c-2.3-0.1-4.4,0.3-6.4,1.3c-4.6,2.3-8.7,5.2-12.3,9
									C-48.1,45.8-46.1,45.6-44.3,45.3 M-60.8,60c0.1,0.1,0.1,0.2,0.2,0.2c7.1-1.9,14-3.7,21.1-5.6c6.7-1.7,13.3-3.6,20.1-5.2
									c3.6-0.9,5.2-3.3,6.6-6.5c-3.9,0.5-7.6,1-11.4,1.5c-5.6,0.7-11.2,1.5-16.8,2.2c-1.3,0.2-2.7,0.5-3.8,1
									c-5.6,2.8-10.5,6.4-14.8,10.8C-60,58.9-60.4,59.5-60.8,60 M-10.8,28.9c0,0.8,0.1,1.6,1.1,1.7c1,0.1,2.3,1,3.2-0.4
									c0.7-1,1.2-2.1,1.9-3.1c2.8,5.2,4.4,11.1,4.4,17.4c0,20.1-16.2,36.2-36.2,36.2s-36.2-16.2-36.2-36.2S-56.4,8.1-36.3,8.1
									c9.9,0,18.9,3.9,25.4,10.4c0,0.4,0,0.7,0,1C-10.9,22.6-10.8,25.7-10.8,28.9"/>
							</g>
						</g>
					</g>
				</g>
			</g>
		</g>
	</g>
</g>
</svg>
