<?xml version="1.0" encoding="utf-8"?>
<!-- Generator: Adobe Illustrator 18.1.1, SVG Export Plug-In . SVG Version: 6.00 Build 0)  -->
<svg version="1.1" xmlns="http://www.w3.org/2000/svg" xmlns:xlink="http://www.w3.org/1999/xlink" x="0px" y="0px"
	 viewBox="0 0 94 94" enable-background="new 0 0 94 94" xml:space="preserve">
<path id="XMLID_419_" fill="#F17C67" d="M47.6,0.1C21.6-0.1,0.4,20.8,0.2,46.7c-0.1,10.9,3.6,21,9.7,29c2.4-2.4,4.1-4,4.4-4.3
	c1.2-1.2,4.5-1.2,4.5-1.2s3.2-3.2,6.5-6.4c3.3-3.3-2.3-9-2.3-9l-7.8-8c30.7-30.2,53-20.8,53-20.8s9,22.5-21.7,52.7l-7.8-8
	c0,0-5.6-5.7-8.9-2.4c-3.3,3.3-6.5,6.4-6.5,6.4s0,3.3-1.3,4.5c-0.3,0.3-2,1.9-4.4,4.3c8,6.5,18.1,10.4,29.2,10.5
	c26,0.2,47.2-20.7,47.4-46.6C94.4,21.6,73.5,0.3,47.6,0.1z"/>
</svg>
