<?xml version="1.0" encoding="UTF-8" standalone="no"?>
<svg
   xmlns:dc="http://purl.org/dc/elements/1.1/"
   xmlns:cc="http://creativecommons.org/ns#"
   xmlns:rdf="http://www.w3.org/1999/02/22-rdf-syntax-ns#"
   xmlns:svg="http://www.w3.org/2000/svg"
   xmlns="http://www.w3.org/2000/svg"
   viewBox="0 0 76.129868 76.129868"
   height="76.129868"
   width="76.129868"
   xml:space="preserve"
   id="svg2"
   version="1.1"><metadata
     id="metadata8"><rdf:RDF><cc:Work
         rdf:about=""><dc:format>image/svg+xml</dc:format><dc:type
           rdf:resource="http://purl.org/dc/dcmitype/StillImage" /></cc:Work></rdf:RDF></metadata><defs
     id="defs6"><clipPath
       id="clipPath18"
       clipPathUnits="userSpaceOnUse"><path
         id="path16"
         d="M 0,57.097 H 57.097 V 0 H 0 Z" /></clipPath></defs><g
     transform="matrix(1.3333333,0,0,-1.3333333,0,76.129867)"
     id="g10"><g
       id="g12"><g
         clip-path="url(#clipPath18)"
         id="g14"><g
           transform="translate(41.64,7.7553)"
           id="g20"><path
             id="path22"
             style="fill:#999999;fill-opacity:1;fill-rule:nonzero;stroke:none"
             d="M 0,0 C 0.339,1.453 0.663,2.849 0.991,4.244 1.11,4.75 1.241,5.254 1.365,5.759 2.139,8.919 2.559,9.246 5.922,9.304 6.294,5.378 3.282,0.525 0,0 m -4.72,2.517 c 1.002,3.702 2.588,5.338 5.467,5.56 C 0.22,5.191 -2.438,2.524 -4.72,2.517 m -3.244,5.995 c -2.899,0.839 -5.616,2.078 -8.352,3.817 0.413,0.087 0.608,0.157 0.805,0.166 7.281,0.32 14.562,0.639 21.843,0.945 C 8.4,13.527 8.735,13.273 9.488,11.148 7.161,10.645 4.848,10.139 2.533,9.645 0.609,9.234 -1.336,8.903 -3.24,8.411 -4.848,7.995 -6.401,8.06 -7.964,8.512 M -19.37,21.643 c 7.712,-1.01 15.414,-2.106 23.14,-2.997 2.464,-0.284 3.169,-1.981 4.111,-3.85 -1.291,-0.069 -2.465,-0.147 -3.64,-0.192 -4.429,-0.166 -8.859,-0.291 -13.286,-0.498 -1.799,-0.084 -3.471,0.255 -5.079,1.024 -3.622,1.733 -6.796,4.097 -9.671,7.043 1.475,-0.176 2.953,-0.337 4.425,-0.53 m -12.99,11.495 c 0.057,0.061 0.114,0.122 0.171,0.184 5.529,-1.454 11.059,-2.906 16.588,-4.36 5.247,-1.379 10.469,-2.864 15.75,-4.096 2.819,-0.658 4.034,-2.622 5.155,-5.093 -3.055,0.388 -5.962,0.755 -8.869,1.127 -4.39,0.562 -8.783,1.101 -13.166,1.712 -1.014,0.142 -2.07,0.385 -2.976,0.841 -4.353,2.189 -8.226,5.065 -11.67,8.511 -0.359,0.36 -0.657,0.781 -0.983,1.174 M 7.017,8.698 c 0.013,0.654 0.103,1.258 0.868,1.314 0.845,0.061 1.816,0.833 2.508,-0.334 0.493,-0.831 0.991,-1.66 1.488,-2.489 2.217,4.055 3.479,8.706 3.479,13.653 0,15.74 -12.76,28.5 -28.5,28.5 -15.74,0 -28.5,-12.76 -28.5,-28.5 0,-15.74 12.76,-28.5 28.5,-28.5 7.772,0 14.814,3.115 19.955,8.16 0.002,0.276 0,0.552 0.006,0.827 0.054,2.457 0.147,4.912 0.196,7.369" /></g></g></g></g></svg>