<?xml version="1.0" encoding="utf-8"?>
<!-- Generator: Adobe Illustrator 16.0.0, SVG Export Plug-In . SVG Version: 6.00 Build 0)  -->
<!DOCTYPE svg PUBLIC "-//W3C//DTD SVG 1.1//EN" "http://www.w3.org/Graphics/SVG/1.1/DTD/svg11.dtd">
<svg version="1.1" id="Layer_1" xmlns="http://www.w3.org/2000/svg" xmlns:xlink="http://www.w3.org/1999/xlink" x="0px" y="0px"
	 width="329px" height="155px" viewBox="138.186 -47.646 329 155" enable-background="new 138.186 -47.646 329 155"
	 xml:space="preserve">
<path fill="#FFFFFF" d="M375.815-11.212c-0.151,0-0.298,0.018-0.448,0.021c0.111-0.97,0.174-1.949,0.174-2.947
	c0-14.138-11.458-25.596-25.598-25.596c-11.017,0-20.403,6.959-24.013,16.721c-1.986-2.377-4.97-3.89-8.308-3.89
	c-5.979,0-10.824,4.844-10.824,10.82c0,0.865,0.111,1.702,0.304,2.509c-8.134,1.421-14.322,8.5-14.322,17.041
	c0,9.563,7.755,17.313,17.317,17.313h1.667c5.4-5.401,12.013-12.016,12.479-12.481c0.796-0.794,2.914-0.794,2.914-0.794
	s2.063-2.061,4.184-4.184c2.121-2.121-1.532-5.772-1.532-5.772l-5.098-5.098c19.612-19.619,34.103-13.715,34.103-13.715
	s5.907,14.492-13.704,34.11l-5.1-5.099c0,0-3.65-3.651-5.77-1.53c-2.124,2.123-4.187,4.187-4.187,4.187s0.003,2.119-0.795,2.916
	c-0.325,0.324-3.646,3.647-7.46,7.463h55.397v-0.069c8.186-0.701,14.612-7.56,14.612-15.928
	C391.812-4.05,384.649-11.212,375.815-11.212z"/>
<g>
	<path fill="#FFFFFF" d="M161.029,78.64c1.571,0,2.682-0.152,3.334-0.461c0.651-0.307,0.977-0.898,0.977-1.781
		c0-0.689-0.421-1.293-1.265-1.812c-0.843-0.517-2.126-1.101-3.851-1.753c-1.344-0.497-2.559-1.016-3.649-1.552
		c-1.093-0.535-2.022-1.179-2.789-1.927c-0.766-0.746-1.358-1.638-1.781-2.672c-0.422-1.035-0.633-2.279-0.633-3.736
		c0-2.835,1.056-5.077,3.162-6.725c2.107-1.648,5-2.472,8.68-2.472c1.839,0,3.603,0.163,5.288,0.488
		c1.687,0.326,3.026,0.681,4.023,1.063l-1.495,6.668c-0.996-0.346-2.078-0.651-3.247-0.92c-1.169-0.268-2.48-0.402-3.938-0.402
		c-2.684,0-4.023,0.748-4.023,2.242c0,0.344,0.058,0.651,0.173,0.92c0.115,0.27,0.344,0.526,0.689,0.775
		c0.345,0.249,0.812,0.52,1.407,0.809s1.352,0.608,2.271,0.955c1.877,0.696,3.429,1.383,4.655,2.059
		c1.226,0.676,2.192,1.406,2.902,2.188c0.708,0.784,1.207,1.654,1.495,2.61c0.287,0.956,0.432,2.064,0.432,3.324
		c0,2.984-1.121,5.24-3.362,6.77c-2.242,1.528-5.414,2.294-9.514,2.294c-2.684,0-4.914-0.229-6.696-0.688
		c-1.782-0.461-3.02-0.844-3.708-1.149l1.438-6.956c1.456,0.575,2.95,1.026,4.483,1.352C158.02,78.478,159.534,78.64,161.029,78.64"
		/>
	<path fill="#FFFFFF" d="M205.977,54.555c-1.729,5.825-3.533,11.285-5.416,16.381c-1.883,5.098-3.939,10.041-6.166,14.83
		c-0.808,1.725-1.613,3.189-2.418,4.396c-0.808,1.208-1.689,2.203-2.649,2.988c-0.959,0.785-2.043,1.36-3.251,1.726
		c-1.209,0.363-2.619,0.546-4.229,0.546c-1.345,0-2.582-0.125-3.716-0.373c-1.131-0.25-2.062-0.527-2.791-0.834l1.494-6.84
		c0.883,0.307,1.668,0.518,2.358,0.632c0.688,0.115,1.419,0.173,2.187,0.173c1.533,0,2.711-0.412,3.536-1.236
		c0.823-0.822,1.523-1.963,2.1-3.42c-1.955-3.83-3.911-8.133-5.866-12.902c-1.955-4.771-3.796-10.127-5.521-16.066h9.082
		c0.386,1.494,0.838,3.113,1.357,4.857c0.52,1.743,1.067,3.506,1.646,5.287s1.164,3.517,1.762,5.201
		c0.596,1.688,1.164,3.221,1.703,4.6c0.5-1.379,1.02-2.912,1.559-4.6c0.539-1.686,1.068-3.42,1.587-5.201s1.021-3.544,1.501-5.287
		c0.48-1.744,0.913-3.363,1.299-4.857L205.977,54.555L205.977,54.555z"/>
	<path fill="#FFFFFF" d="M218.048,78.64c1.571,0,2.683-0.152,3.334-0.461c0.651-0.307,0.979-0.898,0.979-1.781
		c0-0.689-0.422-1.293-1.266-1.812c-0.844-0.517-2.127-1.101-3.852-1.753c-1.342-0.497-2.558-1.016-3.648-1.552
		c-1.094-0.535-2.023-1.179-2.789-1.927c-0.767-0.746-1.359-1.638-1.781-2.672c-0.422-1.035-0.633-2.279-0.633-3.736
		c0-2.835,1.055-5.077,3.162-6.725c2.106-1.648,5-2.472,8.68-2.472c1.838,0,3.602,0.163,5.288,0.488
		c1.686,0.326,3.025,0.681,4.022,1.063l-1.495,6.668c-0.995-0.346-2.077-0.651-3.246-0.92c-1.17-0.268-2.481-0.402-3.938-0.402
		c-2.682,0-4.022,0.748-4.022,2.242c0,0.344,0.059,0.651,0.174,0.92c0.114,0.27,0.344,0.526,0.688,0.775s0.813,0.52,1.408,0.809
		c0.594,0.289,1.351,0.608,2.271,0.955c1.877,0.696,3.43,1.383,4.655,2.059c1.227,0.676,2.193,1.406,2.903,2.188
		c0.708,0.784,1.207,1.654,1.495,2.61c0.287,0.956,0.431,2.064,0.431,3.324c0,2.984-1.121,5.24-3.362,6.77
		c-2.241,1.528-5.414,2.294-9.514,2.294c-2.683,0-4.914-0.229-6.696-0.688c-1.781-0.461-3.018-0.844-3.708-1.149l1.438-6.956
		c1.456,0.575,2.95,1.026,4.482,1.352C215.04,78.478,216.553,78.64,218.048,78.64"/>
	<path fill="#FFFFFF" d="M262.767,83.812c-0.768,0.23-1.647,0.451-2.645,0.662c-0.998,0.211-2.042,0.393-3.133,0.545
		c-1.092,0.152-2.204,0.277-3.334,0.375c-1.131,0.096-2.213,0.144-3.248,0.144c-2.49,0-4.713-0.365-6.668-1.093
		c-1.953-0.728-3.602-1.772-4.943-3.133c-1.341-1.359-2.365-3.008-3.073-4.942c-0.71-1.935-1.064-4.109-1.064-6.524
		c0-2.451,0.307-4.664,0.92-6.639c0.613-1.974,1.495-3.65,2.646-5.029c1.148-1.38,2.559-2.434,4.225-3.162
		c1.667-0.727,3.572-1.093,5.721-1.093c1.187,0,2.25,0.116,3.189,0.346c0.938,0.23,1.887,0.557,2.845,0.978V41.564l8.564-1.379
		L262.767,83.812L262.767,83.812z M243.397,69.442c0,2.645,0.594,4.771,1.781,6.381c1.188,1.609,2.948,2.414,5.287,2.414
		c0.768,0,1.477-0.028,2.127-0.086c0.651-0.059,1.188-0.125,1.609-0.201V62.373c-0.538-0.347-1.235-0.633-2.099-0.862
		c-0.861-0.229-1.733-0.345-2.615-0.345C245.427,61.166,243.397,63.924,243.397,69.442"/>
	<path fill="#FFFFFF" d="M279.034,45.818c0,1.571-0.508,2.808-1.522,3.707c-1.017,0.901-2.214,1.352-3.593,1.352
		c-1.381,0-2.579-0.45-3.594-1.352c-1.016-0.899-1.521-2.136-1.521-3.707c0-1.571,0.507-2.807,1.521-3.708
		c1.015-0.899,2.213-1.351,3.594-1.351c1.379,0,2.576,0.451,3.593,1.351C278.526,43.011,279.034,44.247,279.034,45.818
		 M278.229,84.79h-8.564V54.555h8.564V84.79z"/>
	<path fill="#FFFFFF" d="M311.221,80.996c0,4.942-1.256,8.612-3.765,11.008c-2.512,2.396-6.391,3.593-11.641,3.593
		c-1.84,0-3.679-0.164-5.519-0.488c-1.84-0.325-3.545-0.758-5.115-1.293l1.495-7.187c1.34,0.537,2.747,0.958,4.225,1.265
		c1.475,0.308,3.151,0.461,5.029,0.461c2.45,0,4.186-0.537,5.2-1.609c1.017-1.073,1.523-2.452,1.523-4.139v-1.092
		c-0.92,0.422-1.867,0.737-2.845,0.947c-0.979,0.21-2.04,0.316-3.19,0.316c-4.178,0-7.377-1.236-9.6-3.709
		c-2.224-2.471-3.334-5.928-3.334-10.375c0-2.221,0.346-4.242,1.035-6.062c0.688-1.82,1.694-3.382,3.018-4.686
		c1.322-1.302,2.941-2.308,4.857-3.018c1.916-0.708,4.08-1.062,6.494-1.062c1.034,0,2.1,0.049,3.19,0.144
		c1.092,0.097,2.174,0.222,3.248,0.374c1.072,0.153,2.098,0.336,3.074,0.546c0.978,0.211,1.849,0.432,2.614,0.662v25.405H311.221z
		 M292.426,68.694c0,4.791,1.935,7.188,5.806,7.188c0.881,0,1.705-0.115,2.472-0.346c0.768-0.23,1.417-0.498,1.954-0.807V61.05
		c-0.422-0.076-0.92-0.144-1.494-0.201s-1.246-0.087-2.012-0.087c-2.262,0-3.947,0.748-5.06,2.241
		C292.981,64.499,292.426,66.396,292.426,68.694"/>
	<path fill="#FFFFFF" d="M339.162,85.435c-2.334,0-4.396-0.371-6.185-1.107c-1.791-0.739-3.279-1.799-4.467-3.182
		c-1.188-1.381-2.091-3.037-2.714-4.961c-0.624-1.928-0.936-4.058-0.936-6.393c0-2.372,0.322-4.533,0.964-6.48
		c0.642-1.942,1.564-3.618,2.772-5.018c1.207-1.401,2.665-2.48,4.379-3.241c1.711-0.758,3.637-1.136,5.778-1.136
		c1.633,0,3.16,0.136,4.578,0.407c1.424,0.273,2.521,0.624,3.3,1.051l-0.994,3.268c-0.775-0.386-1.652-0.701-2.624-0.932
		c-0.973-0.236-2.275-0.351-3.91-0.351c-3.349,0-5.886,1.078-7.616,3.238c-1.732,2.159-2.599,5.224-2.599,9.193
		c0,1.788,0.193,3.433,0.583,4.933c0.39,1.498,1.021,2.783,1.896,3.854s2.003,1.904,3.386,2.509c1.381,0.603,3.063,0.905,5.05,0.905
		c1.635,0,3.006-0.186,4.113-0.555c1.108-0.369,1.919-0.688,2.423-0.963l0.818,3.268c-0.701,0.39-1.803,0.77-3.298,1.14
		C342.363,85.251,340.798,85.435,339.162,85.435"/>
	<polygon fill="#FFFFFF" points="354.259,85.708 354.259,41.182 358.054,40.48 358.054,84.928 	"/>
	<path fill="#FFFFFF" d="M391.809,69.735c0,2.371-0.34,4.533-1.021,6.479c-0.681,1.945-1.633,3.602-2.855,4.961
		c-1.228,1.364-2.677,2.422-4.352,3.182c-1.673,0.759-3.521,1.138-5.544,1.138c-2.021,0-3.873-0.379-5.546-1.138
		c-1.676-0.76-3.123-1.816-4.35-3.182c-1.225-1.359-2.179-3.016-2.86-4.961c-0.68-1.945-1.019-4.105-1.019-6.479
		c0-2.375,0.339-4.533,1.019-6.479c0.683-1.946,1.638-3.611,2.86-4.993c1.227-1.379,2.674-2.449,4.35-3.208
		c1.673-0.76,3.523-1.139,5.546-1.139c2.021,0,3.871,0.379,5.544,1.139c1.675,0.759,3.124,1.829,4.352,3.208
		c1.224,1.382,2.176,3.047,2.855,4.993C391.469,65.202,391.809,67.36,391.809,69.735 M387.785,69.735c0-3.773-0.875-6.78-2.63-9.021
		c-1.75-2.237-4.123-3.354-7.118-3.354c-2.998,0-5.371,1.117-7.122,3.354c-1.752,2.239-2.627,5.246-2.627,9.021
		c0,3.773,0.875,6.771,2.627,8.988c1.751,2.219,4.124,3.325,7.122,3.325c2.995,0,5.368-1.106,7.118-3.325
		C386.91,76.506,387.785,73.509,387.785,69.735"/>
	<path fill="#FFFFFF" d="M418.249,54.618v7.479v17.057c-0.348,0.154-0.845,0.701-2.507,1.507c-1.204,0.583-2.88,1.274-4.672,1.274
		c-1.595,0-2.944-0.205-4.054-0.613c-1.108-0.407-2.015-1.068-2.719-1.983c-0.696-0.913-1.203-2.11-1.515-3.59
		s-0.469-3.287-0.469-5.431V54.618h-3.794v16.926c0,2.062,0.206,3.95,0.616,5.662c0.407,1.713,1.076,3.172,2.009,4.378
		c0.938,1.207,2.162,2.14,3.681,2.802c1.52,0.661,3.404,0.993,5.659,0.993c2.767,0,5.089-0.585,7.007-1.567
		c0.254-0.129,0.507-0.232,0.756-0.322v2.22l3.798-0.778V82.76V61.396v-6.777H418.249z"/>
	<path fill="#FFFFFF" d="M451.112,40.199v14.419v1.809c-0.662-0.505-1.721-1.041-3.181-1.604c-1.459-0.563-3.181-0.847-5.164-0.847
		c-2.181,0-4.116,0.39-5.811,1.168c-0.637,0.292-1.22,0.643-1.78,1.022c-0.935,0.632-1.779,1.369-2.511,2.245
		c-0.479,0.577-0.899,1.207-1.282,1.873c-0.552,0.953-1.018,1.983-1.373,3.118c-0.604,1.928-0.902,4.037-0.902,6.334
		c0,2.449,0.356,4.648,1.08,6.596c0.721,1.945,1.731,3.602,3.034,4.96c0.942,0.987,2.025,1.801,3.238,2.451
		c0.386,0.235,0.79,0.452,1.228,0.644c0.817,0.355,1.75,0.608,2.782,0.772c0.884,0.141,1.837,0.221,2.879,0.221
		c2.763,0,5.088-0.585,7.005-1.565c0.253-0.131,0.506-0.232,0.758-0.324v1.369v0.851l3.794-0.778v-1.07V82.76V61.396v-6.777V39.499
		L451.112,40.199z M451.112,79.151c-0.348,0.156-0.845,0.701-2.509,1.508c-1.202,0.583-2.88,1.273-4.671,1.273
		c-0.36,0-0.796,0.021-1.263,0.051c-2.008-0.191-3.738-0.834-5.204-1.92c-0.478-0.354-0.934-0.746-1.354-1.192
		c-1.984-2.122-2.979-5.167-2.979-9.136c0-1.674,0.176-3.258,0.524-4.758c0.324-1.377,0.834-2.584,1.519-3.633
		c0.06-0.092,0.112-0.188,0.176-0.28c0.778-1.108,1.8-1.991,3.063-2.655c1.267-0.661,2.829-0.991,4.698-0.991
		c0.896,0,1.752,0.088,2.571,0.261c0.813,0.179,1.574,0.401,2.272,0.675c0.701,0.272,1.313,0.562,1.841,0.875
		c0.524,0.311,0.965,0.603,1.312,0.876v1.991v17.055H451.112z"/>
</g>
</svg>
