<?xml version="1.0" encoding="utf-8"?>
<!-- Generator: Adobe Illustrator 16.0.0, SVG Export Plug-In . SVG Version: 6.00 Build 0)  -->
<!DOCTYPE svg PUBLIC "-//W3C//DTD SVG 1.1//EN" "http://www.w3.org/Graphics/SVG/1.1/DTD/svg11.dtd">
<svg version="1.1" id="Layer_1" xmlns="http://www.w3.org/2000/svg" xmlns:xlink="http://www.w3.org/1999/xlink" x="0px" y="0px"
	 width="73.918px" height="69.354px" viewBox="0 0 73.918 69.354" enable-background="new 0 0 73.918 69.354" xml:space="preserve">
<path fill="#DE5447" d="M37.241,0.659C18.456,0.503,3.1,15.606,2.945,34.394c-0.067,7.902,2.578,15.189,7.052,21.002
	c1.749-1.724,2.956-2.91,3.155-3.104c0.9-0.883,3.279-0.861,3.279-0.861s2.334-2.296,4.732-4.658c2.4-2.362-1.665-6.489-1.665-6.489
	l-5.675-5.769c22.188-21.831,38.394-15.072,38.394-15.072s6.491,16.315-15.694,38.146l-5.678-5.771c0,0-4.06-4.126-6.458-1.767
	c-2.401,2.363-4.734,4.656-4.734,4.656s-0.015,2.379-0.917,3.265c-0.202,0.196-1.417,1.396-3.181,3.13
	c5.775,4.684,13.109,7.528,21.125,7.596c18.789,0.152,34.142-14.946,34.294-33.736C71.13,16.171,56.027,0.815,37.241,0.659z"/>
</svg>
