<?xml version="1.0" encoding="UTF-8" standalone="no"?>
<svg
   xmlns:dc="http://purl.org/dc/elements/1.1/"
   xmlns:cc="http://creativecommons.org/ns#"
   xmlns:rdf="http://www.w3.org/1999/02/22-rdf-syntax-ns#"
   xmlns:svg="http://www.w3.org/2000/svg"
   xmlns="http://www.w3.org/2000/svg"
   viewBox="0 0 400 400"
   height="400"
   width="400"
   xml:space="preserve"
   id="svg2"
   version="1.1"><metadata
     id="metadata8"><rdf:RDF><cc:Work
         rdf:about=""><dc:format>image/svg+xml</dc:format><dc:type
           rdf:resource="http://purl.org/dc/dcmitype/StillImage" /></cc:Work></rdf:RDF></metadata><defs
     id="defs6"><clipPath
       id="clipPath18"
       clipPathUnits="userSpaceOnUse"><path
         id="path16"
         d="M 0,300 H 300 V 0 H 0 Z" /></clipPath><clipPath
       id="clipPath26"
       clipPathUnits="userSpaceOnUse"><path
         id="path24"
         d="M 0.946335,298.837 H 299.054 V 0.730057 H 0.946335 Z" /></clipPath></defs><g
     transform="matrix(1.3333333,0,0,-1.3333333,0,400)"
     id="g10"><g
       id="g12"><g
         clip-path="url(#clipPath18)"
         id="g14"><g
           id="g20"><g
             id="g22" /><g
             id="g34"><g
               style="opacity:0.60000598"
               id="g32"
               clip-path="url(#clipPath26)"><g
                 id="g30"
                 transform="translate(218.7219,40.7807)"><path
                   id="path28"
                   style="fill:#999999;fill-opacity:1;fill-rule:nonzero;stroke:none"
                   d="m 0,0 c 1.773,7.6 3.466,14.9 5.183,22.194 0.623,2.649 1.307,5.284 1.954,7.928 4.047,16.523 6.249,18.237 23.833,18.539 C 32.916,28.129 17.164,2.744 0,0 m -24.687,13.162 c 5.24,19.361 13.535,27.917 28.594,29.083 C 1.151,27.149 -12.75,13.198 -24.687,13.162 m -16.962,31.357 c -15.166,4.388 -29.371,10.864 -43.681,19.963 2.16,0.456 3.177,0.821 4.207,0.866 38.08,1.672 76.159,3.345 114.242,4.944 C 43.929,70.746 45.681,69.415 49.62,58.304 37.453,55.671 25.357,53.028 13.25,50.442 3.184,48.292 -6.987,46.56 -16.943,43.988 c -8.41,-2.174 -16.533,-1.833 -24.706,0.531 m -59.653,68.674 C -60.969,107.912 -20.689,102.178 19.716,97.519 32.602,96.033 36.29,87.156 41.219,77.38 34.466,77.02 28.327,76.613 22.182,76.381 -0.981,75.508 -24.154,74.857 -47.307,73.775 c -9.409,-0.44 -18.154,1.332 -26.563,5.356 -18.94,9.062 -35.538,21.423 -50.576,36.834 7.716,-0.92 15.441,-1.763 23.144,-2.772 m -67.941,60.118 c 0.299,0.32 0.597,0.639 0.896,0.959 28.918,-7.599 57.837,-15.197 86.755,-22.799 27.441,-7.213 54.754,-14.978 82.373,-21.425 14.742,-3.442 21.098,-13.711 26.961,-26.636 -15.979,2.031 -31.184,3.951 -46.386,5.897 -22.959,2.94 -45.935,5.756 -68.858,8.953 -5.305,0.74 -10.824,2.014 -15.563,4.397 -22.77,11.448 -43.021,26.489 -61.035,44.515 -1.879,1.882 -3.436,4.085 -5.143,6.139 M 36.697,45.488 c 0.068,3.421 0.538,6.579 4.543,6.872 4.418,0.322 9.494,4.359 13.113,-1.743 2.579,-4.348 5.185,-8.681 7.784,-13.019 11.595,21.205 18.195,45.533 18.195,71.405 0,82.32 -66.734,149.054 -149.054,149.054 -82.32,0 -149.054,-66.734 -149.054,-149.054 0,-82.32 66.734,-149.054 149.054,-149.054 40.648,0 77.477,16.291 104.366,42.674 0.01,1.443 -0.002,2.887 0.029,4.33 0.283,12.846 0.768,25.688 1.024,38.535" /></g></g></g></g></g></g></g></svg>