<?xml version="1.0" encoding="utf-8"?>
<!-- Generator: Adobe Illustrator 16.0.0, SVG Export Plug-In . SVG Version: 6.00 Build 0)  -->
<!DOCTYPE svg PUBLIC "-//W3C//DTD SVG 1.1//EN" "http://www.w3.org/Graphics/SVG/1.1/DTD/svg11.dtd">
<svg version="1.1" id="Layer_1" xmlns="http://www.w3.org/2000/svg" xmlns:xlink="http://www.w3.org/1999/xlink" x="0px" y="0px"
	 width="472.373px" height="121.709px" viewBox="0 0 472.373 121.709" enable-background="new 0 0 472.373 121.709"
	 xml:space="preserve">
<path fill="#1D8B90" d="M113.461,57.245c-0.152,0-0.298,0.018-0.449,0.022c0.112-0.97,0.174-1.95,0.174-2.948
	c0-14.138-11.458-25.596-25.597-25.596c-11.017,0-20.404,6.959-24.013,16.721c-1.986-2.377-4.97-3.89-8.308-3.89
	c-5.979,0-10.824,4.844-10.824,10.82c0,0.865,0.111,1.702,0.304,2.509c-8.134,1.421-14.322,8.5-14.322,17.041
	c0,9.563,7.754,17.314,17.317,17.314h1.667c5.4-5.402,12.013-12.017,12.479-12.482c0.796-0.794,2.914-0.794,2.914-0.794
	s2.064-2.061,4.184-4.184c2.121-2.121-1.532-5.772-1.532-5.772l-5.098-5.098C81.969,41.289,96.46,47.193,96.46,47.193
	s5.907,14.492-13.704,34.11l-5.1-5.099c0,0-3.65-3.651-5.77-1.53c-2.124,2.123-4.186,4.186-4.186,4.186s0.003,2.12-0.795,2.916
	c-0.325,0.325-3.646,3.648-7.46,7.463h55.398v-0.069c8.185-0.701,14.612-7.56,14.612-15.928
	C129.458,64.407,122.295,57.245,113.461,57.245z"/>
<g>
	<path fill="#424242" d="M148.529,71.139c1.571,0,2.682-0.152,3.334-0.46c0.651-0.307,0.977-0.899,0.977-1.782
		c0-0.689-0.421-1.293-1.265-1.811c-0.843-0.517-2.126-1.101-3.851-1.753c-1.343-0.497-2.558-1.015-3.649-1.552
		c-1.093-0.535-2.023-1.179-2.789-1.926s-1.359-1.638-1.781-2.673c-0.422-1.034-0.633-2.279-0.633-3.736
		c0-2.835,1.055-5.077,3.162-6.725s5-2.472,8.68-2.472c1.838,0,3.602,0.163,5.288,0.488c1.686,0.326,3.026,0.681,4.023,1.063
		l-1.495,6.668c-0.996-0.346-2.078-0.651-3.247-0.92c-1.169-0.268-2.481-0.402-3.938-0.402c-2.683,0-4.023,0.747-4.023,2.241
		c0,0.345,0.058,0.652,0.173,0.92c0.115,0.27,0.344,0.527,0.689,0.776c0.345,0.249,0.813,0.519,1.408,0.808
		c0.594,0.29,1.351,0.609,2.271,0.956c1.877,0.696,3.429,1.382,4.655,2.058s2.193,1.406,2.903,2.189
		c0.708,0.784,1.207,1.654,1.495,2.61c0.287,0.956,0.431,2.064,0.431,3.325c0,2.983-1.121,5.239-3.362,6.769
		c-2.242,1.528-5.414,2.294-9.514,2.294c-2.683,0-4.914-0.229-6.696-0.689s-3.019-0.843-3.708-1.149l1.438-6.956
		c1.456,0.575,2.95,1.026,4.483,1.352C145.52,70.977,147.034,71.139,148.529,71.139"/>
	<path fill="#424242" d="M193.477,47.055c-1.729,5.825-3.533,11.285-5.416,16.382s-3.939,10.04-6.166,14.83
		c-0.807,1.724-1.613,3.189-2.418,4.396c-0.807,1.208-1.689,2.203-2.649,2.989c-0.959,0.785-2.043,1.36-3.251,1.725
		c-1.209,0.363-2.619,0.546-4.23,0.546c-1.344,0-2.582-0.125-3.715-0.373c-1.131-0.25-2.062-0.527-2.791-0.834l1.494-6.84
		c0.883,0.306,1.668,0.517,2.358,0.632c0.689,0.115,1.419,0.173,2.187,0.173c1.533,0,2.711-0.412,3.536-1.236
		c0.823-0.823,1.523-1.964,2.099-3.42c-1.955-3.831-3.911-8.134-5.866-12.903c-1.955-4.771-3.796-10.127-5.521-16.066h9.082
		c0.385,1.494,0.838,3.113,1.357,4.857c0.52,1.743,1.068,3.506,1.646,5.287c0.578,1.782,1.164,3.517,1.761,5.202
		c0.596,1.687,1.164,3.22,1.703,4.599c0.5-1.379,1.02-2.912,1.559-4.599c0.539-1.686,1.068-3.42,1.587-5.202
		c0.519-1.781,1.02-3.544,1.501-5.287c0.48-1.744,0.913-3.363,1.299-4.857H193.477z"/>
	<path fill="#424242" d="M205.548,71.139c1.571,0,2.682-0.152,3.334-0.46c0.651-0.307,0.978-0.899,0.978-1.782
		c0-0.689-0.422-1.293-1.266-1.811c-0.843-0.517-2.126-1.101-3.851-1.753c-1.342-0.497-2.558-1.015-3.649-1.552
		c-1.093-0.535-2.023-1.179-2.789-1.926s-1.359-1.638-1.781-2.673c-0.422-1.034-0.633-2.279-0.633-3.736
		c0-2.835,1.055-5.077,3.162-6.725s5-2.472,8.68-2.472c1.838,0,3.602,0.163,5.288,0.488c1.686,0.326,3.026,0.681,4.023,1.063
		l-1.495,6.668c-0.996-0.346-2.078-0.651-3.247-0.92c-1.169-0.268-2.481-0.402-3.938-0.402c-2.682,0-4.022,0.747-4.022,2.241
		c0,0.345,0.058,0.652,0.173,0.92c0.115,0.27,0.344,0.527,0.689,0.776c0.345,0.249,0.813,0.519,1.408,0.808
		c0.594,0.29,1.351,0.609,2.271,0.956c1.877,0.696,3.429,1.382,4.655,2.058s2.193,1.406,2.903,2.189
		c0.708,0.784,1.207,1.654,1.495,2.61c0.287,0.956,0.431,2.064,0.431,3.325c0,2.983-1.121,5.239-3.362,6.769
		c-2.242,1.528-5.414,2.294-9.514,2.294c-2.683,0-4.914-0.229-6.696-0.689s-3.018-0.843-3.708-1.149l1.438-6.956
		c1.456,0.575,2.95,1.026,4.483,1.352C202.54,70.977,204.053,71.139,205.548,71.139"/>
	<path fill="#424242" d="M250.267,76.312c-0.767,0.23-1.647,0.451-2.644,0.661c-0.998,0.211-2.042,0.393-3.133,0.546
		c-1.092,0.152-2.204,0.277-3.334,0.374c-1.131,0.096-2.213,0.144-3.248,0.144c-2.49,0-4.713-0.365-6.668-1.092
		c-1.953-0.728-3.602-1.773-4.943-3.133s-2.366-3.008-3.074-4.943c-0.71-1.935-1.064-4.109-1.064-6.524
		c0-2.451,0.307-4.664,0.92-6.639c0.613-1.974,1.495-3.65,2.645-5.029c1.149-1.38,2.559-2.434,4.225-3.162
		c1.667-0.727,3.572-1.093,5.721-1.093c1.186,0,2.25,0.116,3.189,0.346c0.938,0.23,1.887,0.557,2.845,0.978V34.064l8.564-1.379
		V76.312z M230.897,61.942c0,2.645,0.594,4.771,1.781,6.381c1.188,1.609,2.949,2.414,5.288,2.414c0.767,0,1.476-0.028,2.127-0.086
		s1.188-0.124,1.609-0.201V54.873c-0.538-0.346-1.235-0.633-2.099-0.862c-0.861-0.23-1.733-0.345-2.615-0.345
		C232.927,53.666,230.897,56.424,230.897,61.942"/>
	<path fill="#424242" d="M266.534,38.318c0,1.571-0.508,2.808-1.523,3.707c-1.016,0.901-2.213,1.352-3.592,1.352
		c-1.381,0-2.579-0.45-3.594-1.352c-1.016-0.899-1.522-2.136-1.522-3.707s0.507-2.807,1.522-3.708
		c1.015-0.899,2.213-1.351,3.594-1.351c1.379,0,2.576,0.451,3.592,1.351C266.026,35.511,266.534,36.747,266.534,38.318
		 M265.729,77.29h-8.564V47.055h8.564V77.29z"/>
	<path fill="#424242" d="M298.721,73.496c0,4.943-1.255,8.612-3.764,11.008c-2.512,2.395-6.391,3.593-11.641,3.593
		c-1.84,0-3.679-0.164-5.518-0.489c-1.84-0.325-3.545-0.757-5.116-1.293l1.495-7.186c1.34,0.537,2.748,0.958,4.225,1.265
		c1.475,0.307,3.151,0.46,5.029,0.46c2.451,0,4.186-0.537,5.201-1.609c1.016-1.073,1.523-2.452,1.523-4.139v-1.092
		c-0.92,0.422-1.867,0.738-2.845,0.948s-2.04,0.316-3.19,0.316c-4.178,0-7.377-1.236-9.6-3.708s-3.334-5.929-3.334-10.375
		c0-2.222,0.346-4.243,1.035-6.063s1.695-3.382,3.018-4.686c1.322-1.302,2.941-2.308,4.857-3.018
		c1.916-0.708,4.081-1.063,6.495-1.063c1.034,0,2.099,0.049,3.19,0.144c1.092,0.097,2.174,0.222,3.248,0.374
		c1.072,0.153,2.098,0.336,3.074,0.546c0.978,0.211,1.849,0.432,2.615,0.662V73.496z M279.926,61.195
		c0,4.791,1.934,7.187,5.805,7.187c0.881,0,1.705-0.116,2.472-0.346c0.767-0.23,1.417-0.498,1.954-0.806V53.55
		c-0.422-0.076-0.92-0.144-1.494-0.201s-1.246-0.087-2.012-0.087c-2.262,0-3.947,0.748-5.059,2.241
		C280.481,56.999,279.926,58.896,279.926,61.195"/>
	<path fill="#424242" d="M326.662,77.935c-2.334,0-4.397-0.372-6.185-1.108c-1.791-0.739-3.279-1.798-4.467-3.181
		c-1.188-1.382-2.091-3.038-2.714-4.962c-0.624-1.927-0.935-4.057-0.935-6.392c0-2.372,0.322-4.533,0.964-6.48
		c0.641-1.943,1.564-3.618,2.772-5.018c1.207-1.401,2.665-2.48,4.379-3.241c1.711-0.758,3.637-1.136,5.778-1.136
		c1.633,0,3.161,0.136,4.579,0.407c1.423,0.273,2.521,0.624,3.299,1.051l-0.994,3.268c-0.775-0.386-1.652-0.701-2.624-0.932
		c-0.973-0.236-2.275-0.351-3.91-0.351c-3.349,0-5.886,1.078-7.616,3.238c-1.733,2.159-2.599,5.224-2.599,9.193
		c0,1.788,0.194,3.433,0.583,4.932c0.39,1.499,1.022,2.784,1.897,3.854c0.875,1.07,2.003,1.905,3.385,2.509
		c1.381,0.602,3.064,0.905,5.05,0.905c1.635,0,3.006-0.185,4.113-0.554c1.109-0.369,1.919-0.689,2.423-0.964l0.819,3.268
		c-0.702,0.39-1.803,0.77-3.298,1.14C329.863,77.751,328.297,77.935,326.662,77.935"/>
	<polygon fill="#424242" points="341.758,78.208 341.758,33.682 345.554,32.98 345.554,77.428 	"/>
	<path fill="#424242" d="M379.309,62.235c0,2.372-0.34,4.533-1.021,6.479c-0.681,1.945-1.633,3.601-2.856,4.961
		c-1.227,1.364-2.677,2.422-4.351,3.182c-1.673,0.758-3.522,1.137-5.544,1.137c-2.022,0-3.873-0.379-5.546-1.137
		c-1.676-0.76-3.123-1.817-4.35-3.182c-1.224-1.36-2.179-3.016-2.86-4.961c-0.68-1.945-1.019-4.106-1.019-6.479
		c0-2.374,0.339-4.533,1.019-6.479c0.682-1.946,1.637-3.611,2.86-4.993c1.227-1.379,2.674-2.449,4.35-3.208
		c1.673-0.76,3.523-1.139,5.546-1.139c2.021,0,3.871,0.379,5.544,1.139c1.674,0.759,3.124,1.829,4.351,3.208
		c1.224,1.382,2.176,3.047,2.856,4.993C378.969,57.702,379.309,59.861,379.309,62.235 M375.285,62.235c0-3.773-0.875-6.78-2.63-9.02
		c-1.75-2.237-4.123-3.354-7.118-3.354c-2.998,0-5.371,1.117-7.122,3.354c-1.752,2.239-2.627,5.246-2.627,9.02
		c0,3.774,0.875,6.771,2.627,8.989c1.751,2.218,4.124,3.325,7.122,3.325c2.995,0,5.368-1.107,7.118-3.325
		C374.41,69.006,375.285,66.009,375.285,62.235"/>
	<path fill="#424242" d="M405.749,47.118v7.479v17.056c-0.348,0.155-0.845,0.701-2.507,1.507c-1.204,0.583-2.88,1.275-4.672,1.275
		c-1.595,0-2.945-0.206-4.054-0.614c-1.108-0.407-2.015-1.068-2.719-1.983c-0.696-0.913-1.203-2.11-1.514-3.59
		c-0.312-1.479-0.469-3.287-0.469-5.43V47.118h-3.794v16.926c0,2.063,0.206,3.95,0.616,5.662c0.407,1.713,1.076,3.172,2.009,4.378
		c0.938,1.207,2.162,2.14,3.681,2.802c1.519,0.661,3.404,0.993,5.659,0.993c2.766,0,5.089-0.585,7.007-1.567
		c0.254-0.129,0.507-0.233,0.756-0.323v2.22l3.797-0.779V75.26V53.896v-6.778H405.749z"/>
	<path fill="#424242" d="M438.612,32.699v14.419v1.809c-0.662-0.505-1.721-1.041-3.181-1.605c-1.459-0.563-3.181-0.847-5.164-0.847
		c-2.181,0-4.116,0.39-5.81,1.168c-0.637,0.292-1.22,0.643-1.781,1.022c-0.934,0.632-1.779,1.369-2.51,2.245
		c-0.48,0.577-0.9,1.207-1.283,1.873c-0.551,0.953-1.017,1.984-1.373,3.119c-0.604,1.927-0.902,4.037-0.902,6.333
		c0,2.45,0.356,4.649,1.08,6.596c0.721,1.946,1.731,3.601,3.034,4.96c0.943,0.987,2.026,1.801,3.238,2.451
		c0.386,0.235,0.791,0.452,1.228,0.644c0.817,0.355,1.75,0.608,2.782,0.772c0.884,0.141,1.837,0.221,2.879,0.221
		c2.763,0,5.088-0.585,7.005-1.565c0.253-0.131,0.506-0.233,0.758-0.325v1.369v0.851l3.794-0.779V76.36v-1.1V53.896v-6.778V31.999
		L438.612,32.699z M438.612,71.652c-0.348,0.155-0.845,0.701-2.509,1.507c-1.202,0.583-2.88,1.274-4.671,1.274
		c-0.36,0-0.796,0.021-1.263,0.051c-2.007-0.192-3.738-0.835-5.204-1.921c-0.477-0.354-0.933-0.746-1.354-1.192
		c-1.985-2.122-2.979-5.167-2.979-9.136c0-1.674,0.176-3.258,0.525-4.758c0.324-1.376,0.834-2.584,1.518-3.632
		c0.06-0.092,0.113-0.188,0.176-0.28c0.778-1.108,1.8-1.991,3.064-2.655c1.266-0.661,2.829-0.991,4.698-0.991
		c0.896,0,1.752,0.088,2.571,0.261c0.814,0.179,1.574,0.401,2.273,0.675c0.701,0.272,1.313,0.562,1.84,0.875
		c0.525,0.311,0.965,0.603,1.312,0.876v1.991V71.652z"/>
</g>
</svg>
